<svg width="25" height="25" viewBox="0 0 25 25" fill="none" xmlns="http://www.w3.org/2000/svg">
<path fill-rule="evenodd" clip-rule="evenodd" d="M23 12.6136C23 12.4188 22.9398 12.2319 22.8326 12.0941C22.7255 11.9563 22.5802 11.8789 22.4286 11.8789H8.95175L12.5481 7.25588C12.6012 7.18756 12.6434 7.10646 12.6721 7.01721C12.7009 6.92795 12.7157 6.83229 12.7157 6.73567C12.7157 6.63906 12.7009 6.5434 12.6721 6.45414C12.6434 6.36489 12.6012 6.28379 12.5481 6.21547C12.495 6.14716 12.4319 6.09297 12.3625 6.056C12.2931 6.01903 12.2187 6 12.1436 6C12.0684 6 11.994 6.01903 11.9246 6.056C11.8552 6.09297 11.7921 6.14716 11.739 6.21547L7.16787 12.0934C7.11466 12.1617 7.07244 12.2428 7.04363 12.332C7.01483 12.4213 7 12.517 7 12.6136C7 12.7103 7.01483 12.806 7.04363 12.8953C7.07244 12.9845 7.11466 13.0656 7.16787 13.1339L11.739 19.0118C11.7921 19.0801 11.8552 19.1343 11.9246 19.1713C11.994 19.2083 12.0684 19.2273 12.1436 19.2273C12.2187 19.2273 12.2931 19.2083 12.3625 19.1713C12.4319 19.1343 12.495 19.0801 12.5481 19.0118C12.6012 18.9435 12.6434 18.8624 12.6721 18.7732C12.7009 18.6839 12.7157 18.5882 12.7157 18.4916C12.7157 18.395 12.7009 18.2993 12.6721 18.2101C12.6434 18.1208 12.6012 18.0397 12.5481 17.9714L8.95175 13.3484H22.4286C22.5802 13.3484 22.7255 13.271 22.8326 13.1332C22.9398 12.9954 23 12.8085 23 12.6136Z" fill="white"/>
</svg>
