<svg width="15" height="15" viewBox="0 0 15 15" fill="none" xmlns="http://www.w3.org/2000/svg">
<path d="M7.28018 0.219739C7.21062 0.149994 7.12798 0.0946779 7.03698 0.0569683C6.94598 0.0192586 6.84843 -0.00010135 6.74993 3.98992e-07H2.99997C2.90147 -0.00010135 2.80392 0.0192586 2.71292 0.0569683C2.62193 0.0946779 2.53928 0.149994 2.46973 0.219739L0.219749 2.46962C0.149967 2.53915 0.094627 2.62179 0.0569135 2.71279C0.0191999 2.80378 -0.000142085 2.90134 7.85747e-07 2.99985V6.74965C7.85747e-07 6.94914 0.07875 7.13963 0.219749 7.27987L7.71967 14.7795C7.78916 14.8494 7.87178 14.9048 7.96278 14.9427C8.05378 14.9805 8.15136 15 8.24992 15C8.34847 15 8.44605 14.9805 8.53705 14.9427C8.62805 14.9048 8.71067 14.8494 8.78016 14.7795L14.7801 8.7798C14.8498 8.71021 14.9051 8.62756 14.9428 8.53658C14.9806 8.4456 15 8.34807 15 8.24957C15 8.15108 14.9806 8.05355 14.9428 7.96257C14.9051 7.87159 14.8498 7.78894 14.7801 7.71935L7.28018 0.219739ZM8.24992 13.1888L1.49999 6.43917V3.31033L3.31047 1.49992H6.43944L13.1894 8.24957L8.24992 13.1888Z" fill="white" fill-opacity="0.75"/>
<path d="M5 6C5.55228 6 6 5.55228 6 5C6 4.44772 5.55228 4 5 4C4.44772 4 4 4.44772 4 5C4 5.55228 4.44772 6 5 6Z" fill="white" fill-opacity="0.75"/>
</svg>
