<svg width="270" height="324" viewBox="0 0 270 324" fill="none" xmlns="http://www.w3.org/2000/svg">
<g clip-path="url(#clip0_122_375)">
<path d="M197.3 250C197.6 251.2 197.9 252.4 198.3 253.6C203.3 272.7 209.1 301.4 207.6 313.3C207.3 316.2 206.5 318 205.2 318.6C204.9 318.7 204.5 318.8 204.1 318.9C202.7 319 201 318.6 199.1 317.6C187.1 311.7 166.4 287.5 162.7 279.3C162.2 278.3 162 277.5 162.1 277.1C164.2 268.8 189.2 233.4 192.2 235.2C193 235.6 195 241.5 197.3 250Z" fill="url(#paint0_linear_122_375)"/>
<path d="M162.7 279.3C162.7 282.3 196.2 261.8 192.2 235.1C192.2 235.1 162.6 251.4 162.7 279.3Z" fill="url(#paint1_linear_122_375)"/>
<path opacity="0.3" d="M197.3 250C197.3 250 180 263.8 179.3 275C178.6 286.1 189.3 307.6 199.1 317.6C187.1 311.7 166.4 287.5 162.7 279.3C162.2 278.3 162 277.5 162.1 277.1C164.2 268.8 189.2 233.4 192.2 235.2C193 235.6 195 241.5 197.3 250Z" fill="url(#paint2_linear_122_375)"/>
<path d="M79.8999 254.6C79.5999 255.8 79.2999 257 78.8999 258.2C73.8999 277.3 68.0999 306 69.5999 317.9C69.8999 320.8 70.6999 322.6 71.9999 323.2C72.2999 323.3 72.6999 323.4 73.0999 323.5C74.4999 323.6 76.1999 323.2 78.0999 322.2C90.0999 316.3 110.8 292.1 114.5 283.9C115 282.9 115.2 282.1 115.1 281.7C113 273.4 87.9999 238 84.9999 239.8C84.1999 240.2 82.1999 246.1 79.8999 254.6Z" fill="url(#paint3_linear_122_375)"/>
<path d="M114.5 283.9C114.5 286.9 80.9999 266.4 84.9999 239.7C84.9999 239.7 114.5 256 114.5 283.9Z" fill="url(#paint4_linear_122_375)"/>
<path d="M91.3 284.3C92.6 285.4 88.1 297.2 85.4 296.8C82.8 296.5 88.4 281.9 91.3 284.3Z" fill="white"/>
<path d="M191.9 301.6C193.6 301.5 197.3 308.4 195 310C192.9 311.6 188.1 301.9 191.9 301.6Z" fill="white"/>
<path opacity="0.3" d="M79.9001 254.6C79.9001 254.6 97.2001 268.4 97.9001 279.6C98.6001 290.7 87.9001 312.2 78.1001 322.2C90.1001 316.3 110.8 292.1 114.5 283.9C115 282.9 115.2 282.1 115.1 281.7C113 273.4 88.0001 238 85.0001 239.8C84.2001 240.2 82.2001 246.1 79.9001 254.6Z" fill="url(#paint5_linear_122_375)"/>
<path d="M88.1001 20.5002C88.1001 20.5002 76.5001 10.5002 62.3001 8.7002C62.3001 8.7002 58.0001 10.8002 52.9001 26.5002C47.9001 42.2002 57.2001 73.1002 57.2001 73.1002L88.1001 20.5002Z" fill="url(#paint6_linear_122_375)"/>
<path d="M56.7 16.5002C56.7 16.5002 59 11.2002 62.2 8.7002C62.2 8.7002 73.9 19.5002 73.4 45.3002L70 48.8002L56.7 16.5002Z" fill="url(#paint7_linear_122_375)"/>
<path d="M184.2 20.5002C184.2 20.5002 195.8 10.5002 210 8.7002C210 8.7002 214.3 10.8002 219.4 26.5002C224.4 42.2002 215.1 73.1002 215.1 73.1002L184.2 20.5002Z" fill="url(#paint8_linear_122_375)"/>
<path d="M210.1 8.6998C210.1 8.6998 198.6 20.9998 198.6 40.8998L203 43.6998L216 16.8998C216 16.8998 211.7 8.4998 210.1 8.6998Z" fill="url(#paint9_linear_122_375)"/>
<path d="M202.6 42.2999C202.6 42.2999 199.5 25.2999 210.7 12.8999C210.7 12.8999 223.3 18.7999 228.6 40.8999C233.9 62.9999 220.2 76.1999 220.2 76.1999L202.6 42.2999Z" fill="url(#paint10_linear_122_375)"/>
<path d="M69.7 42.2999C69.7 42.2999 72.8 25.2999 61.6 12.8999C61.6 12.8999 49 18.7999 43.7 40.8999C38.5 62.8999 52.1 76.1999 52.1 76.1999L69.7 42.2999Z" fill="url(#paint11_linear_122_375)"/>
<path d="M218.1 136.1C192.2 172.4 70.2999 169.7 54.3999 140.4C44.0999 121.2 45.1999 92.4 55.0999 65.8C68.2999 30.9 96.5999 0 134.1 0C178.3 0 212.3 44 222.5 84.2C227.7 104.5 226.8 123.9 218.1 136.1Z" fill="url(#paint12_linear_122_375)"/>
<path d="M63.4999 102.4C69.2999 127.1 176.4 129.8 202.7 107.4C229.1 84.9998 191.2 5.29976 133.2 8.79976C80.0999 11.9998 53.9999 61.7998 63.4999 102.4Z" fill="#DFE3FB"/>
<path d="M63.0001 99.3998C68.8001 124.1 175.9 126.8 202.2 104.4C228.5 81.9998 190.6 2.29976 132.6 5.79976C79.5001 8.99976 53.5001 58.8998 63.0001 99.3998Z" fill="url(#paint13_linear_122_375)"/>
<path opacity="0.3" d="M218.1 136.1C192.2 172.4 70.2999 169.7 54.3999 140.4C44.0999 121.2 45.1999 92.3998 55.0999 65.7998C54.6999 67.3998 44.4999 104.6 54.8999 121C65.5999 137.7 107.7 135.4 153 133.5C198.3 131.6 213.2 125 220.8 112.2C226.8 102.2 220.8 79.9998 217.9 70.9998L222.3 84.1998C227.7 104.5 226.8 123.9 218.1 136.1Z" fill="url(#paint14_linear_122_375)"/>
<path d="M134.3 162.9C109 162.9 90.6999 160 80.4999 155.9C73.7999 153.2 70.4999 150 70.9999 146.7C71.2999 144.7 76.2999 142.9 84.0999 141.5C107.1 137.3 154.7 136.1 180.4 140C182.6 140.3 184.7 140.7 186.5 141.1C186.9 141.2 187.3 141.3 187.7 141.4C187.8 141.4 187.8 141.4 187.9 141.4C192.3 142.5 195.5 143.8 196.9 145.4C197.3 145.8 197.5 146.2 197.6 146.7C199.9 154.9 157.2 162.9 134.3 162.9Z" fill="url(#paint15_linear_122_375)"/>
<path opacity="0.5" d="M197.2 144.7C197.1 144.9 197 145.2 196.8 145.5C194.3 149 184.3 153.5 184.3 153.5C184.3 153.5 145.6 137.7 114.3 144.7C83 151.7 80.6 155.9 80.6 155.9C73.9 153.2 70.6 150 71.1 146.7C71.4 144.7 76.4 142.9 84.2 141.5C107.2 137.3 154.8 136.1 180.5 140C183.2 140.5 185.6 140.9 187.8 141.4C187.9 141.4 187.9 141.4 188 141.4C193.9 142.7 197.5 143.9 197.2 144.7Z" fill="url(#paint16_linear_122_375)"/>
<path d="M186.5 141.1C180.5 146.8 151.8 151.8 135.4 151.8C106.1 151.8 88.2001 147.1 84.1001 141.6C109.1 137 163.1 135.9 186.5 141.1Z" fill="url(#paint17_linear_122_375)"/>
<path opacity="0.5" d="M54.4 140.4C54.4 140.4 59.4999 134.4 69.5999 129.6C79.6999 124.8 89 121 90.4 117.1C91.8 113.2 62.7 115.5 62.7 115.5L48.2 121.8C48.3 121.7 50.6 133.4 54.4 140.4Z" fill="url(#paint18_linear_122_375)"/>
<path d="M42.6 48.7998C42.6 48.7998 50.1 53.5998 45.2 64.7998C45.2 64.7998 10.1 83.8998 12.1 104.7C13.8 122.1 62.3 113.7 62.3 113.7L64 119.5C64 119.5 22.8 127.6 8.6 117.9C8.6 117.9 3.8 106.4 15.8 85.6998C27.8 64.9998 42.6 48.7998 42.6 48.7998Z" fill="url(#paint19_linear_122_375)"/>
<path d="M56.0999 112.1C51.6999 117.1 61.0999 122.6 68.7999 123.4C77.4999 124.3 92.7999 120.9 91.8999 112.2C90.9999 103.5 66.4999 100.3 56.0999 112.1Z" fill="url(#paint20_linear_122_375)"/>
<path opacity="0.5" d="M80.6001 36.7999C79.3001 44.7999 97.1001 44.4999 121.4 43.6999C150.6 42.6999 180 67.8999 197.1 49.7999C199.9 46.7999 171.9 7.79991 138.2 8.69991C104.4 9.59991 81.7001 29.8999 80.6001 36.7999Z" fill="url(#paint21_linear_122_375)"/>
<path opacity="0.5" d="M97.0999 106.6C95.5999 112.4 107.7 117.1 137.6 116.8C175.5 116.4 182.2 107.2 181.5 106.6C181.5 106.6 165.8 115.8 136.1 109.3C116.5 105 98.6999 100.5 97.0999 106.6Z" fill="url(#paint22_linear_122_375)"/>
<path opacity="0.3" d="M217.8 70.2001L216.9 67.6001C217.1 68.0001 217.4 69.0001 217.8 70.2001Z" fill="url(#paint23_linear_122_375)"/>
<path d="M217.5 91.0999C216.3 90.9999 216.7 101.2 218.2 100.8C219.7 100.4 219.2 91.2999 217.5 91.0999Z" fill="white"/>
<path d="M56.6999 113C56.3999 114.4 87.2999 114.8 88.0999 109.3C88.7999 103.8 58.7999 101.9 56.6999 113Z" fill="url(#paint24_linear_122_375)"/>
<path opacity="0.2" d="M64.2999 91.1999C64.2999 91.1999 62.9999 82.7999 64.4999 71.4999C65.9999 60.1999 68.9999 52.8999 70.7999 53.8999C72.5999 54.8999 72.2999 65.9999 73.3999 76.8999C74.1999 85.3999 75.8999 93.3999 75.8999 93.3999C75.8999 93.3999 68.0999 100.8 64.2999 91.1999Z" fill="url(#paint25_linear_122_375)"/>
<path d="M41.4 52.3999C41.4 52.3999 24.3 71.5999 25.3 72.9999C26.3 74.2999 42.4 54.3999 41.4 52.3999Z" fill="url(#paint26_linear_122_375)"/>
<path d="M100.6 156C98.4001 167 93.9001 182.6 86.4001 194.5C74.1001 214.2 56.5 238.6 56 239.3C47.5 242.5 38.5001 240.5 32.9001 238.6C29.5001 237.4 27.3 236.2 27.3 236.2C27.3 236.2 34.5 212.3 53.2001 187.3C62.6 174.7 73.6001 163.5 82.8001 155.4C82.9001 155.4 82.9001 155.3 82.9001 155.3C83.0001 155.2 83.1 155.1 83.2 155C83.3 154.9 83.3001 154.9 83.4001 154.8C83.5001 154.7 83.5 154.7 83.6 154.7C83.7 154.6 83.8001 154.6 83.8001 154.5C93.1001 146.4 100.3 141.8 101.5 142.7C102.4 143.3 102.1 148.6 100.6 156Z" fill="url(#paint27_linear_122_375)"/>
<path opacity="0.3" d="M100.6 156C98.3999 167 93.8999 182.6 86.3999 194.5C74.0999 214.2 56.4999 238.6 55.9999 239.3L32.9999 238.6C29.5999 237.4 27.3999 236.2 27.3999 236.2C27.3999 236.2 34.5999 212.3 53.2999 187.3C62.6999 174.7 73.6999 163.5 82.8999 155.4C77.5999 160.2 55.2999 181.1 46.5999 200.8C36.6999 223.2 60.2999 218.4 71.9999 205.6C83.6999 192.9 100.4 155.9 100.4 155.9L100.6 156Z" fill="url(#paint28_linear_122_375)"/>
<path d="M76.4 179.1C74.7 178.1 80.6 168.9 83.5 169.2C86.4 169.6 77.8 179.9 76.4 179.1Z" fill="white"/>
<path d="M67.6 192C66.3 191 64.3 194.6 65.4 195.4C66.7 196.3 69.1 193.1 67.6 192Z" fill="white"/>
<path d="M31.2999 225.9C31.2999 225.9 37.1999 214.1 47.1999 218.8C57.1999 223.5 49.9999 239.7 49.9999 239.7C49.9999 239.7 36.6999 245.9 27.3999 236.2C27.3999 236.2 28.5999 232 31.2999 225.9Z" fill="url(#paint29_linear_122_375)"/>
<path d="M30.9999 223C30.9999 223 43.7999 217.9 49.7999 223.8C54.5999 228.6 52.6999 239 49.8999 245.7C47.0999 252.5 27.5999 273.8 18.8999 273.5C10.1999 273.1 5.39993 263.7 8.99993 252.5C8.99993 252.5 21.3999 230.5 30.9999 223Z" fill="url(#paint30_linear_122_375)"/>
<path d="M31 223C31 223 30.8 234.8 23.2 243.1C15.6 251.3 10.6 269.1 10.6 269.1C10.6 269.1 6.60002 264.6 9.00002 252.5C11.4 240.4 31 223 31 223Z" fill="url(#paint31_linear_122_375)"/>
<path opacity="0.5" d="M9.6001 250.2L16.0001 254.4C16.0001 254.4 18.5001 248.6 21.8001 244.6C25.2001 240.5 27.9001 232.4 27.9001 232.4L9.6001 250.2Z" fill="url(#paint32_linear_122_375)"/>
<path d="M28.8 224.6C28.8 224.6 23 225.8 14.3 231.7C5.69997 237.6 0.499969 244.5 -3.14191e-05 246.3C-0.500031 248.1 2.09997 251.3 5.09997 251.4C8.09997 251.6 18.2 245.9 18.2 245.9C18.2 245.9 31.7 232.8 28.8 224.6Z" fill="url(#paint33_linear_122_375)"/>
<path d="M23.1999 243C23.1999 243 38.8999 237.5 50.9999 243.1L49.8999 245.7C49.8999 245.7 37.7999 239.9 21.8999 244.5L23.1999 243Z" fill="url(#paint34_linear_122_375)"/>
<path d="M7.9 243.7C7.1 242.8 15.6 237.1 16.1 238.5C16.6 239.9 9 244.9 7.9 243.7Z" fill="white"/>
<path d="M101.7 142.7C101.7 142.7 89.5001 163.2 90.8001 186.5C90.9001 186.5 106.7 157.8 101.7 142.7Z" fill="url(#paint35_linear_122_375)"/>
<path d="M171.6 154.1C173.8 165.1 178.3 180.7 185.8 192.6C198.1 212.3 215.7 236.7 216.2 237.4C224.7 240.6 233.7 238.6 239.3 236.7C242.7 235.5 244.9 234.3 244.9 234.3C244.9 234.3 237.7 210.4 219 185.4C209.6 172.8 198.6 161.6 189.4 153.5C189.3 153.5 189.3 153.4 189.3 153.4C189.2 153.3 189.1 153.2 189 153.1C188.9 153 188.9 153 188.8 152.9C188.7 152.8 188.7 152.8 188.6 152.8C188.5 152.7 188.4 152.7 188.4 152.6C179.1 144.5 171.9 139.9 170.7 140.8C169.9 141.4 170.2 146.7 171.6 154.1Z" fill="url(#paint36_linear_122_375)"/>
<path opacity="0.3" d="M171.6 154.1C173.8 165.1 178.3 180.7 185.8 192.6C198.1 212.3 215.7 236.7 216.2 237.4L239.3 236.7C242.7 235.5 244.9 234.3 244.9 234.3C244.9 234.3 237.7 210.4 219 185.4C209.6 172.8 198.6 161.6 189.4 153.5C194.7 158.3 217 179.2 225.7 198.9C235.6 221.3 212 216.5 200.3 203.7C188.6 191 171.9 154 171.9 154L171.6 154.1Z" fill="url(#paint37_linear_122_375)"/>
<path d="M195.9 177.1C197.6 176.1 191.7 166.9 188.8 167.2C186 167.6 194.5 178 195.9 177.1Z" fill="white"/>
<path d="M241 224C241 224 235.1 212.2 225.1 216.9C215.1 221.6 222.3 237.8 222.3 237.8C222.3 237.8 235.6 244 244.9 234.3C244.9 234.3 243.7 230.1 241 224Z" fill="url(#paint38_linear_122_375)"/>
<path d="M241.3 221.1C241.3 221.1 228.5 216 222.5 221.9C217.7 226.7 219.6 237.1 222.4 243.8C225.2 250.6 244.7 271.9 253.4 271.6C262.1 271.2 266.9 261.8 263.3 250.6C263.3 250.6 250.9 228.6 241.3 221.1Z" fill="url(#paint39_linear_122_375)"/>
<path d="M237.2 219.8C237.2 219.8 240.1 232.7 249.2 241.1C257.4 248.7 261.8 267.1 261.8 267.1C261.8 267.1 265.8 262.6 263.4 250.5C260.9 238.5 237.2 219.8 237.2 219.8Z" fill="url(#paint40_linear_122_375)"/>
<path opacity="0.5" d="M262.7 248.3L256.4 252C256.4 252 254.1 246.5 250.4 242.6C239.5 231.1 237.1 219.8 237.1 219.8L251.9 233.4C251.9 233.4 255.5 237.2 258.3 240.8C259.7 242.6 262.7 248.3 262.7 248.3Z" fill="url(#paint41_linear_122_375)"/>
<path d="M237.2 219.8C237.2 219.8 240.2 218.9 250.7 218.6C261.5 218.3 267.2 221.3 268.8 222.3C270.4 223.3 270.7 227.3 268.6 229.5C266.5 231.7 247.7 235.1 247.7 235.1C247.7 235.1 240.6 227.8 237.2 219.8Z" fill="url(#paint42_linear_122_375)"/>
<path d="M249.2 241.1C249.2 241.1 233.5 235.6 221.4 241.2L222.5 243.8C222.5 243.8 234.6 237.9 250.5 242.6L249.2 241.1Z" fill="url(#paint43_linear_122_375)"/>
<path d="M170.6 140.8C170.6 140.8 182.8 161.3 181.5 184.6C181.5 184.6 165.6 155.9 170.6 140.8Z" fill="url(#paint44_linear_122_375)"/>
<path d="M123.6 99.2C123.6 99.2 130.8 90.2001 138.5 88.5001C146.1 86.8001 148.7 96.2 148.7 96.2C148.7 96.2 134.6 95 123.6 99.2Z" fill="#2F95CD"/>
<path d="M120.9 35.6001C120.5 44.3001 120.4 52.8001 120.4 61.3001C120.4 63.9001 120.4 66.5001 120.4 69.1001C120.4 71.7001 120.5 74.3001 120.5 76.9001L114 77.0001C114.1 74.7001 114.2 72.3001 114.3 70.0001C114.4 67.7001 114.5 65.3001 114.6 62.9001L102.8 63.0001C103.4 58.8001 103.8 54.6001 104.2 50.4001C104.6 46.2001 104.9 41.8001 105.1 37.3001H111.4C111 40.7001 110.6 44.1001 110.2 47.7001C109.9 51.3001 109.7 54.7001 109.6 58.1001L114.7 57.9001C114.7 56.5001 114.8 55.2001 114.8 53.8001V49.7001C114.8 47.4001 114.8 45.1001 114.8 42.8001C114.8 40.5001 114.7 38.2001 114.6 35.8001L120.9 35.6001Z" fill="#C900FC"/>
<path d="M145.2 56.5002C145.2 60.3002 144.9 63.5002 144.4 66.2002C143.8 68.9002 143.1 71.2002 142.1 73.0002C141.1 74.8002 140 76.1002 138.7 77.0002C137.4 77.9002 136 78.3002 134.6 78.3002C133.2 78.3002 131.8 77.9002 130.5 77.1002C129.2 76.3002 128.1 75.0002 127.1 73.2002C126.1 71.4002 125.4 69.2002 124.8 66.4002C124.2 63.7002 124 60.3002 124 56.5002C124 52.7002 124.3 49.1002 124.8 46.3002C125.4 43.5002 126.1 41.3002 127.1 39.6002C128.1 37.9002 129.2 36.6002 130.5 35.9002C131.8 35.1002 133.2 34.7002 134.6 34.7002C136 34.7002 137.4 35.1002 138.7 35.9002C140 36.7002 141.1 38.0002 142.1 39.8002C143.1 41.5002 143.8 43.8002 144.4 46.6002C144.9 49.4002 145.2 52.7002 145.2 56.5002ZM138.6 56.5002C138.6 53.6002 138.5 51.2002 138.3 49.1002C138.1 47.0002 137.8 45.3002 137.4 44.0002C137 42.7002 136.6 41.7002 136.1 41.0002C135.6 40.4002 135.1 40.1002 134.5 40.1002C133.9 40.1002 133.4 40.4002 132.9 41.0002C132.4 41.6002 132 42.5002 131.6 43.8002C131.2 45.1002 130.9 46.8002 130.7 48.9002C130.5 51.0002 130.4 53.5002 130.4 56.6002C130.4 59.7002 130.5 62.0002 130.7 64.1002C130.9 66.2002 131.2 67.9002 131.6 69.2002C132 70.5002 132.4 71.5002 132.9 72.2002C133.4 72.8002 133.9 73.1002 134.5 73.1002C135.1 73.1002 135.6 72.8002 136.1 72.1002C136.6 71.5002 137 70.4002 137.4 69.1002C137.8 67.8002 138 66.0002 138.3 64.0002C138.5 61.8002 138.6 59.3002 138.6 56.5002Z" fill="#C900FC"/>
<path d="M165.2 35.6001C164.8 44.3001 164.7 52.8001 164.7 61.3001C164.7 63.9001 164.7 66.5001 164.7 69.1001C164.7 71.7001 164.8 74.3001 164.8 76.9001L158.3 77.0001C158.4 74.7001 158.5 72.3001 158.6 70.0001C158.7 67.7001 158.8 65.3001 158.9 62.9001L147.1 63.0001C147.7 58.8001 148.1 54.6001 148.5 50.4001C148.9 46.1001 149.2 41.8001 149.4 37.3001H155.7C155.3 40.7001 154.9 44.1001 154.5 47.7001C154.2 51.3001 154 54.7001 153.9 58.1001L159 57.9001C159 56.5001 159.1 55.2001 159.1 53.8001V49.7001C159.1 47.4001 159.1 45.1001 159.1 42.8001C159.1 40.5001 159 38.2001 158.9 35.8001L165.2 35.6001Z" fill="#C900FC"/>
<path d="M186.6 246.8C183.1 267.7 164.4 281.6 137.6 281.6C114.3 281.6 94.4999 272.9 89.2999 253.8C83.9999 234.6 85.9999 199.2 92.9999 177.2C93.9999 173.9 95.2999 170.7 96.7999 167.7C98.0999 165 99.5999 162.4 101.2 159.9C109.7 147.1 122.2 138.7 136.3 138.7C150.4 138.7 162.2 144.7 169.8 153.6C173.3 157.7 176.1 162.5 178.1 167.6C180.4 173.4 182.3 179.6 183.9 186C183.9 186 183.9 186.1 183.9 186.2C188.7 206.3 189.7 228.1 186.6 246.8Z" fill="url(#paint45_linear_122_375)"/>
<path opacity="0.3" d="M186.6 246.8C183.1 267.7 164.4 281.6 137.6 281.6C114.3 281.6 94.4999 272.9 89.2999 253.8C83.9999 234.6 85.9999 199.2 92.9999 177.2C93.9999 173.9 95.2999 170.7 96.7999 167.7C96.7999 167.7 82.6999 214.5 93.9999 244.3C105.3 274.1 157.9 273.5 175.7 253.7C192.6 234.9 184.8 190.6 184 186.4C188.7 206.3 189.7 228.2 186.6 246.8Z" fill="url(#paint46_linear_122_375)"/>
<path d="M90.1999 234.4C94.1999 206.4 116.7 187.4 141.7 189.7C168.6 192.2 183.1 217.9 182.7 240C182.3 262 166.2 279.2 137.3 279.2C108.4 279.3 86.4999 260.6 90.1999 234.4Z" fill="url(#paint47_linear_122_375)"/>
<path d="M90.4001 236.7C94.4001 208.7 116.9 189.7 141.9 192C168.8 194.5 183.3 220.2 182.9 242.3C182.5 264.3 166.4 281.5 137.5 281.5C108.6 281.6 86.7001 262.9 90.4001 236.7Z" fill="url(#paint48_radial_122_375)"/>
<path opacity="0.5" d="M169.8 153.7C164.1 162.6 132.6 167.9 114.5 166.2C98.6999 164.8 101.1 160.5 101.2 159.9C109.7 147.1 122.2 138.7 136.3 138.7C150.4 138.7 162.1 144.7 169.8 153.7Z" fill="url(#paint49_linear_122_375)"/>
<path d="M158.6 169.2C157.1 169.7 157.1 181.5 158.6 183.4C160.1 185.3 162.6 184.7 163.4 181.9C164.2 179.1 160.8 168.5 158.6 169.2Z" fill="white"/>
<path style="mix-blend-mode:screen" opacity="0.72" d="M100.079 217.431C104.817 225.006 124.361 220.977 146.376 223.112C168.392 225.265 172.145 232.413 176.79 230.965C181.435 229.517 174.095 196.396 141.212 194.15C108.328 191.903 98.9088 215.537 100.098 217.431H100.079Z" fill="url(#paint50_linear_122_375)"/>
<path style="mix-blend-mode:screen" opacity="0.72" d="M219.153 22.6236C219.153 22.6236 215.427 17.9663 210.329 19.2116C205.23 20.457 204.908 36.5956 207.941 36.988C210.99 37.3803 212.276 28.0657 214.597 26.5985C216.935 25.1314 221 25.6944 221 25.6944L219.137 22.6236H219.153Z" fill="url(#paint51_linear_122_375)"/>
<path style="mix-blend-mode:screen" opacity="0.72" d="M49 29.7383C49 29.7383 51.1551 27.3062 55.9855 28.086C60.8158 28.8843 63.6026 38.7981 66.0921 37.7957C68.5631 36.7931 66.7609 20.7341 60.2027 16C60.2027 16 51.7683 23.1848 49 29.7197V29.7383Z" fill="url(#paint52_linear_122_375)"/>
</g>
<defs>
<linearGradient id="paint0_linear_122_375" x1="195.151" y1="321.317" x2="173.309" y2="240.047" gradientUnits="userSpaceOnUse">
<stop stop-color="#C1D0F7"/>
<stop offset="1" stop-color="#DCDFF7"/>
</linearGradient>
<linearGradient id="paint1_linear_122_375" x1="183.248" y1="271.508" x2="171.784" y2="243.396" gradientUnits="userSpaceOnUse">
<stop stop-color="#9F9DEA"/>
<stop offset="1" stop-color="#8C90EF"/>
</linearGradient>
<linearGradient id="paint2_linear_122_375" x1="201.749" y1="316.494" x2="171.854" y2="243.187" gradientUnits="userSpaceOnUse">
<stop stop-color="#687CC2"/>
<stop offset="1" stop-color="#CCD4FF"/>
</linearGradient>
<linearGradient id="paint3_linear_122_375" x1="82.0201" y1="325.903" x2="103.845" y2="244.626" gradientUnits="userSpaceOnUse">
<stop stop-color="#C1CDF7"/>
<stop offset="1" stop-color="#DCDFF7"/>
</linearGradient>
<linearGradient id="paint4_linear_122_375" x1="93.911" y1="276.089" x2="105.375" y2="247.977" gradientUnits="userSpaceOnUse">
<stop stop-color="#9DA9EA"/>
<stop offset="1" stop-color="#8CA2EF"/>
</linearGradient>
<linearGradient id="paint5_linear_122_375" x1="75.4095" y1="321.079" x2="105.305" y2="247.773" gradientUnits="userSpaceOnUse">
<stop stop-color="#6871C2"/>
<stop offset="1" stop-color="#CCDAFF"/>
</linearGradient>
<linearGradient id="paint6_linear_122_375" x1="69.7045" y1="73.0918" x2="69.7045" y2="8.7072" gradientUnits="userSpaceOnUse">
<stop stop-color="#ACAFF4"/>
<stop offset="1" stop-color="#D1D9F5"/>
</linearGradient>
<linearGradient id="paint7_linear_122_375" x1="65.1083" y1="48.7711" x2="65.1083" y2="8.7072" gradientUnits="userSpaceOnUse">
<stop stop-color="#9DAEEA"/>
<stop offset="1" stop-color="#8C96EF"/>
</linearGradient>
<linearGradient id="paint8_linear_122_375" x1="184.226" y1="40.8995" x2="220.947" y2="40.8995" gradientUnits="userSpaceOnUse">
<stop stop-color="#CCD7FF"/>
<stop offset="1" stop-color="#D2D1F5"/>
</linearGradient>
<linearGradient id="paint9_linear_122_375" x1="207.273" y1="43.6845" x2="207.273" y2="8.6846" gradientUnits="userSpaceOnUse">
<stop stop-color="#9DA0EA"/>
<stop offset="1" stop-color="#8CA8EF"/>
</linearGradient>
<linearGradient id="paint10_linear_122_375" x1="215.994" y1="76.1551" x2="215.994" y2="12.903" gradientUnits="userSpaceOnUse">
<stop stop-color="#6917EB"/>
<stop offset="1" stop-color="#9156F2"/>
</linearGradient>
<linearGradient id="paint11_linear_122_375" x1="42.5371" y1="44.529" x2="70.0936" y2="44.529" gradientUnits="userSpaceOnUse">
<stop stop-color="#6716EE"/>
<stop offset="1" stop-color="#865EF6"/>
</linearGradient>
<linearGradient id="paint12_linear_122_375" x1="129.204" y1="164.386" x2="149.669" y2="1.4289" gradientUnits="userSpaceOnUse">
<stop stop-color="#C1CDF7"/>
<stop offset="1" stop-color="#DCE0F7"/>
</linearGradient>
<linearGradient id="paint13_linear_122_375" x1="135.888" y1="119.713" x2="135.888" y2="5.68236" gradientUnits="userSpaceOnUse">
<stop stop-color="#0665BD"/>
<stop offset="1" stop-color="#1A1F77"/>
</linearGradient>
<linearGradient id="paint14_linear_122_375" x1="136.434" y1="162.877" x2="136.434" y2="65.7586" gradientUnits="userSpaceOnUse">
<stop stop-color="#6A68C2"/>
<stop offset="1" stop-color="#CCD7FF"/>
</linearGradient>
<linearGradient id="paint15_linear_122_375" x1="70.9628" y1="150.262" x2="197.644" y2="150.262" gradientUnits="userSpaceOnUse">
<stop stop-color="#8879EA"/>
<stop offset="1" stop-color="#9E8CEF"/>
</linearGradient>
<linearGradient id="paint16_linear_122_375" x1="134.115" y1="155.893" x2="134.115" y2="137.652" gradientUnits="userSpaceOnUse">
<stop stop-color="#8DA4E5"/>
<stop offset="1" stop-color="#5C6BBB"/>
</linearGradient>
<linearGradient id="paint17_linear_122_375" x1="133.754" y1="153.312" x2="136.129" y2="134.412" gradientUnits="userSpaceOnUse">
<stop stop-color="#3645CC"/>
<stop offset="1" stop-color="#4A5296"/>
</linearGradient>
<linearGradient id="paint18_linear_122_375" x1="69.4096" y1="140.354" x2="69.4096" y2="114.753" gradientUnits="userSpaceOnUse">
<stop stop-color="#8DA4E5"/>
<stop offset="1" stop-color="#755CBB"/>
</linearGradient>
<linearGradient id="paint19_linear_122_375" x1="34.6657" y1="123.624" x2="44.0345" y2="48.9364" gradientUnits="userSpaceOnUse">
<stop stop-color="#AEBDF1"/>
<stop offset="1" stop-color="#97A8E3"/>
</linearGradient>
<linearGradient id="paint20_linear_122_375" x1="71.0938" y1="124.077" x2="75.9177" y2="103.577" gradientUnits="userSpaceOnUse">
<stop stop-color="#6817ED"/>
<stop offset="1" stop-color="#AF5EF6"/>
</linearGradient>
<linearGradient id="paint21_linear_122_375" x1="80.4886" y1="32.5113" x2="197.223" y2="32.5113" gradientUnits="userSpaceOnUse">
<stop/>
<stop offset="1" stop-color="#6A9BFF"/>
</linearGradient>
<linearGradient id="paint22_linear_122_375" x1="96.9821" y1="110.232" x2="181.577" y2="110.232" gradientUnits="userSpaceOnUse">
<stop/>
<stop offset="1" stop-color="#6A9BFF"/>
</linearGradient>
<linearGradient id="paint23_linear_122_375" x1="217.398" y1="70.1772" x2="217.398" y2="67.5409" gradientUnits="userSpaceOnUse">
<stop stop-color="#9D68C2"/>
<stop offset="1" stop-color="#CCEDFF"/>
</linearGradient>
<linearGradient id="paint24_linear_122_375" x1="72.4084" y1="113.88" x2="72.4084" y2="104.932" gradientUnits="userSpaceOnUse">
<stop stop-color="#A287F0"/>
<stop offset="1" stop-color="#9C55F7"/>
</linearGradient>
<linearGradient id="paint25_linear_122_375" x1="69.23" y1="96.1078" x2="72.1183" y2="53.9259" gradientUnits="userSpaceOnUse">
<stop/>
<stop offset="1" stop-color="#00E3FF"/>
</linearGradient>
<linearGradient id="paint26_linear_122_375" x1="33.1687" y1="73.2008" x2="33.5149" y2="52.3047" gradientUnits="userSpaceOnUse">
<stop stop-color="#CBC1F7"/>
<stop offset="1" stop-color="#E8DCF7"/>
</linearGradient>
<linearGradient id="paint27_linear_122_375" x1="49.0813" y1="243.839" x2="83.7768" y2="136.842" gradientUnits="userSpaceOnUse">
<stop stop-color="#C1C6F7"/>
<stop offset="1" stop-color="#DDDCF7"/>
</linearGradient>
<linearGradient id="paint28_linear_122_375" x1="55.109" y1="242.831" x2="72.7038" y2="150.706" gradientUnits="userSpaceOnUse">
<stop stop-color="#6A68C2"/>
<stop offset="1" stop-color="#CCDAFF"/>
</linearGradient>
<linearGradient id="paint29_linear_122_375" x1="40.2742" y1="241.676" x2="39.409" y2="217.778" gradientUnits="userSpaceOnUse">
<stop stop-color="#9DA5EA"/>
<stop offset="1" stop-color="#8C90EF"/>
</linearGradient>
<linearGradient id="paint30_linear_122_375" x1="51.5564" y1="225.7" x2="8.24543" y2="266.781" gradientUnits="userSpaceOnUse">
<stop stop-color="#C1C6F7"/>
<stop offset="1" stop-color="#E4E7FF"/>
</linearGradient>
<linearGradient id="paint31_linear_122_375" x1="38.3943" y1="233.066" x2="3.14741" y2="258.976" gradientUnits="userSpaceOnUse">
<stop stop-color="#9DA9EA"/>
<stop offset="1" stop-color="#A3ABF8"/>
</linearGradient>
<linearGradient id="paint32_linear_122_375" x1="31.1353" y1="236.691" x2="10.7185" y2="251.698" gradientUnits="userSpaceOnUse">
<stop stop-color="#8DA4E5"/>
<stop offset="1" stop-color="#755CBB"/>
</linearGradient>
<linearGradient id="paint33_linear_122_375" x1="29.7151" y1="225.572" x2="2.82538" y2="251.056" gradientUnits="userSpaceOnUse">
<stop stop-color="#C1C6F7"/>
<stop offset="1" stop-color="#DDDCF7"/>
</linearGradient>
<linearGradient id="paint34_linear_122_375" x1="46.4803" y1="237.065" x2="26.9361" y2="251.432" gradientUnits="userSpaceOnUse">
<stop stop-color="#9F9DEA"/>
<stop offset="1" stop-color="#8CAEEF"/>
</linearGradient>
<linearGradient id="paint35_linear_122_375" x1="91.8274" y1="164.273" x2="101.756" y2="164.919" gradientUnits="userSpaceOnUse">
<stop stop-color="#798BEA"/>
<stop offset="1" stop-color="#8C9CEF"/>
</linearGradient>
<linearGradient id="paint36_linear_122_375" x1="223.211" y1="241.927" x2="188.512" y2="134.93" gradientUnits="userSpaceOnUse">
<stop stop-color="#C1C3F7"/>
<stop offset="1" stop-color="#DCE2F7"/>
</linearGradient>
<linearGradient id="paint37_linear_122_375" x1="217.183" y1="240.919" x2="199.587" y2="148.794" gradientUnits="userSpaceOnUse">
<stop stop-color="#6881C2"/>
<stop offset="1" stop-color="#CCDAFF"/>
</linearGradient>
<linearGradient id="paint38_linear_122_375" x1="232.028" y1="239.75" x2="232.913" y2="215.853" gradientUnits="userSpaceOnUse">
<stop stop-color="#9DAEEA"/>
<stop offset="1" stop-color="#8C9CEF"/>
</linearGradient>
<linearGradient id="paint39_linear_122_375" x1="220.747" y1="223.812" x2="264.069" y2="264.879" gradientUnits="userSpaceOnUse">
<stop stop-color="#C1C6F7"/>
<stop offset="1" stop-color="#DCDFF7"/>
</linearGradient>
<linearGradient id="paint40_linear_122_375" x1="230.166" y1="229.322" x2="268.73" y2="257.669" gradientUnits="userSpaceOnUse">
<stop stop-color="#B5BFF5"/>
<stop offset="1" stop-color="#ADBBED"/>
</linearGradient>
<linearGradient id="paint41_linear_122_375" x1="232.823" y1="225.642" x2="262.989" y2="247.818" gradientUnits="userSpaceOnUse">
<stop stop-color="#A9BFFB"/>
<stop offset="1" stop-color="#7F90EA"/>
</linearGradient>
<linearGradient id="paint42_linear_122_375" x1="237.145" y1="226.792" x2="270.029" y2="227.035" gradientUnits="userSpaceOnUse">
<stop stop-color="#C1CAF7"/>
<stop offset="1" stop-color="#DDDCF7"/>
</linearGradient>
<linearGradient id="paint43_linear_122_375" x1="225.807" y1="235.156" x2="245.353" y2="249.524" gradientUnits="userSpaceOnUse">
<stop stop-color="#9DA5EA"/>
<stop offset="1" stop-color="#8CA8EF"/>
</linearGradient>
<linearGradient id="paint44_linear_122_375" x1="180.472" y1="162.38" x2="170.554" y2="163.024" gradientUnits="userSpaceOnUse">
<stop stop-color="#798BEA"/>
<stop offset="1" stop-color="#8C9CEF"/>
</linearGradient>
<linearGradient id="paint45_linear_122_375" x1="130.092" y1="281.338" x2="147.864" y2="139.784" gradientUnits="userSpaceOnUse">
<stop stop-color="#C1CDF7"/>
<stop offset="1" stop-color="#DCDFF7"/>
</linearGradient>
<linearGradient id="paint46_linear_122_375" x1="137.327" y1="281.579" x2="137.327" y2="167.681" gradientUnits="userSpaceOnUse">
<stop stop-color="#9D68C2"/>
<stop offset="1" stop-color="#CCEDFF"/>
</linearGradient>
<linearGradient id="paint47_linear_122_375" x1="136.238" y1="279.26" x2="136.238" y2="189.558" gradientUnits="userSpaceOnUse">
<stop stop-color="#BE9DEA"/>
<stop offset="1" stop-color="#9E8CEF"/>
</linearGradient>
<radialGradient id="paint48_radial_122_375" cx="0" cy="0" r="1" gradientUnits="userSpaceOnUse" gradientTransform="translate(139.303 270.493) scale(71.6938 71.6434)">
<stop stop-color="#4A259A"/>
<stop offset="1" stop-color="#7000FF"/>
</radialGradient>
<linearGradient id="paint49_linear_122_375" x1="135.36" y1="166.483" x2="135.36" y2="138.702" gradientUnits="userSpaceOnUse">
<stop stop-color="#8DB0E5"/>
<stop offset="1" stop-color="#5C71BB"/>
</linearGradient>
<linearGradient id="paint50_linear_122_375" x1="99.9862" y1="212.585" x2="178.053" y2="212.585" gradientUnits="userSpaceOnUse">
<stop/>
<stop offset="1" stop-color="#9FB0DD"/>
</linearGradient>
<linearGradient id="paint51_linear_122_375" x1="206.01" y1="27.9974" x2="221.034" y2="27.9974" gradientUnits="userSpaceOnUse">
<stop/>
<stop offset="1" stop-color="#D4E2FF"/>
</linearGradient>
<linearGradient id="paint52_linear_122_375" x1="49" y1="26.935" x2="67.1511" y2="26.935" gradientUnits="userSpaceOnUse">
<stop stop-color="#D4E2FF"/>
<stop offset="1"/>
</linearGradient>
<clipPath id="clip0_122_375">
<rect width="270" height="324" fill="white"/>
</clipPath>
</defs>
</svg>
