<svg width="36" height="36" viewBox="0 0 36 36" fill="none" xmlns="http://www.w3.org/2000/svg">
<path d="M25.6842 36C25.2059 36 24.7472 35.8102 24.409 35.4723C24.0707 35.1345 23.8807 34.6763 23.8807 34.1985V29.5144C23.9368 28.9756 23.8791 28.4311 23.7113 27.916C23.5436 27.4008 23.2695 26.9266 22.9069 26.5239C22.6824 26.2806 22.5292 25.9803 22.4643 25.6558C22.3994 25.3314 22.4251 24.9953 22.5388 24.6845C22.6524 24.3738 22.8495 24.1002 23.1085 23.894C23.3675 23.6877 23.6784 23.5567 24.007 23.5153C28.4074 22.9928 32.4652 21.5876 32.4652 13.9671C32.4665 12.544 32.0461 11.1523 31.2568 9.96763C30.5285 8.87702 30.2626 7.5425 30.5174 6.25644C30.68 5.4175 30.68 4.5552 30.5174 3.71626C29.167 4.17237 27.8955 4.83479 26.7482 5.67994C26.5313 5.83382 26.283 5.93785 26.0211 5.98457C25.7592 6.03129 25.4902 6.01955 25.2333 5.95018C21.9787 5.03149 18.5329 5.03149 15.2783 5.95018C15.0215 6.01955 14.7524 6.03129 14.4905 5.98457C14.2286 5.93785 13.9803 5.83382 13.7634 5.67994C12.6091 4.825 11.3241 4.1619 9.95811 3.71626C9.7866 4.55432 9.7866 5.41838 9.95811 6.25644C10.1945 7.55869 9.91656 8.90179 9.18262 10.0037C8.39679 11.1967 7.97683 12.593 7.97431 14.0211C7.97431 21.0291 11.3648 22.9027 16.4505 23.5513C16.7833 23.5926 17.098 23.7257 17.3592 23.9357C17.6205 24.1457 17.8179 24.4244 17.9294 24.7403C18.0342 25.0469 18.0544 25.376 17.9877 25.6931C17.9211 26.0101 17.7701 26.3033 17.5506 26.5419C17.1999 26.9164 16.9306 27.3595 16.7599 27.8433C16.5892 28.327 16.5207 28.8408 16.5587 29.3523V34.1985C16.5587 34.6763 16.3687 35.1345 16.0305 35.4723C15.6923 35.8102 15.2336 36 14.7553 36C14.277 36 13.8183 35.8102 13.48 35.4723C13.1418 35.1345 12.9518 34.6763 12.9518 34.1985V33.1716C11.1797 33.3752 9.38466 33.1379 7.72649 32.481C6.06831 31.8241 4.59843 30.7679 3.44765 29.4063C2.85613 28.7514 2.14643 28.2136 1.35565 27.821C1.12592 27.7618 0.910107 27.6581 0.720525 27.5156C0.530942 27.3731 0.371306 27.1948 0.250731 26.9907C0.130155 26.7866 0.0510019 26.5608 0.0177902 26.3261C-0.0154215 26.0915 -0.00204112 25.8526 0.057167 25.6231C0.116375 25.3936 0.220252 25.178 0.362866 24.9886C0.50548 24.7992 0.684038 24.6398 0.888347 24.5193C1.09265 24.3989 1.31871 24.3198 1.55361 24.2866C1.78851 24.2535 2.02765 24.2668 2.25738 24.326C3.64468 24.8308 4.88428 25.6729 5.86428 26.7761C7.66773 28.5776 9.47117 30.163 12.8977 29.5144C12.8375 28.5472 12.9787 27.5779 13.3125 26.668C9.59742 25.7312 4.29527 23.0649 4.29527 14.0571C4.29052 11.9234 4.91802 9.83607 6.09872 8.05799C6.31803 7.72975 6.40202 7.32962 6.33317 6.94103C5.96875 4.99639 6.17544 2.98795 6.92831 1.15806C7.03061 0.914065 7.18544 0.695568 7.3818 0.518093C7.57817 0.340617 7.81125 0.208516 8.06448 0.131176C8.67766 -0.048979 10.8779 -0.409289 15.0438 2.29303C18.4162 1.48234 21.9331 1.48234 25.3055 2.29303C29.4714 -0.409289 31.6716 -0.0669945 32.2668 0.131176C32.52 0.208516 32.7531 0.340617 32.9495 0.518093C33.1458 0.695568 33.3007 0.914065 33.403 1.15806C34.1573 2.9939 34.364 5.00852 33.9981 6.95904C33.9612 7.13479 33.9597 7.31612 33.9938 7.49244C34.0279 7.66875 34.0968 7.83652 34.1965 7.98593C35.3806 9.76911 36.0082 11.8633 35.9999 14.0031C35.9999 23.1369 30.7338 25.7852 26.9827 26.6139C27.3131 27.5806 27.448 28.6033 27.3794 29.6225V34.1985C27.3803 34.6581 27.2052 35.1007 26.89 35.4356C26.5749 35.7705 26.1435 35.9724 25.6842 36V36Z" fill="#fff"/>
</svg>
