<svg width="25" height="22" viewBox="0 0 25 22" fill="none" xmlns="http://www.w3.org/2000/svg">
<path d="M12.501 5.12465C11.0382 -1.64803 0.407715 -1.21219 0.407715 6.99097C0.407715 14.8554 12.501 18.3787 12.501 21.3864C12.501 18.3787 24.5835 14.8554 24.5835 6.99097C24.5921 -1.21219 13.9639 -1.64803 12.501 5.12465Z" fill="#bd00ff"/>
<path d="M22.9481 1.74585C21.7243 0.607573 20.11 -0.0172684 18.4388 0.000363239C17.0224 -0.00593747 15.6407 0.437528 14.4925 1.26687C13.615 1.91335 12.9272 2.7837 12.5011 3.78694C12.0739 2.78428 11.3854 1.91471 10.5075 1.26903C9.35993 0.440122 7.97898 -0.00332218 6.56339 0.00252129V0.00252129C4.89207 -0.0153317 3.27775 0.60954 2.05403 1.74801C0.709847 3.02099 0 4.83337 0 6.99311C0 9.25643 0.936396 11.3622 2.85881 13.4292C4.48563 15.1747 6.52671 16.5901 8.32183 17.8372C10.2637 19.1813 12.5011 20.5838 12.5011 21.5202C12.5011 20.5838 14.7407 19.1813 16.6803 17.8372C18.4776 16.5901 20.5165 15.1747 22.1412 13.4292C24.0658 11.3622 25 9.25643 25 6.99311C25 4.83121 24.2902 3.01883 22.9481 1.74585ZM12.5011 21.3799C12.5011 18.3722 0.407786 14.8489 0.407786 6.98449C0.407786 2.56574 3.49098 0.401675 6.56339 0.401675C9.19781 0.401675 11.8258 1.99182 12.5011 5.11817C13.1764 1.99182 15.8043 0.401675 18.4388 0.401675C21.5112 0.401675 24.5922 2.55927 24.5922 6.98449C24.5922 14.8554 12.5011 18.3787 12.5011 21.3864V21.3799Z" fill="#bd00ff"/>
<g style="mix-blend-mode:multiply" opacity="0.6">
<path d="M21.6535 1.27765C22.8035 2.32408 23.5781 3.92285 23.5781 6.08907C23.5781 13.6234 11.9918 17 11.9918 19.8804C11.9918 17.0539 0.845704 13.7507 0.422816 6.50333C0.422816 6.65868 0.407715 6.81618 0.407715 6.98016C0.407715 14.8446 12.501 18.3679 12.501 21.3756C12.501 18.3679 24.5835 14.8446 24.5835 6.98016C24.5921 4.18392 23.358 2.2874 21.6535 1.27765Z" fill="#E358C5"/>
</g>
<g style="mix-blend-mode:multiply" opacity="0.6">
<path d="M12.501 5.87117V5.12465C11.4222 0.0953039 5.27522 -0.959758 2.18555 2.18817C3.54699 0.738266 10.2873 -0.959756 12.501 5.87117Z" fill="#C237BD"/>
</g>
<g style="mix-blend-mode:screen">
<path d="M1.7542 8.9867C-0.163901 2.08241 6.11685 -0.247785 9.66177 2.43194C7.05971 0.982042 1.0314 2.38879 1.7542 8.9867Z" fill="#C237BD"/>
</g>
</svg>
