<svg width="49" height="49" viewBox="0 0 49 49" fill="none" xmlns="http://www.w3.org/2000/svg">
<g id="logo">
<path id="outer-circle" fill-rule="evenodd" clip-rule="evenodd" d="M7.4704 30.1386C7.84794 31.2749 8.34552 32.3901 8.96762 33.4677C13.9203 42.0459 24.8893 44.9851 33.4676 40.0324C42.0459 35.0797 44.9851 24.1107 40.0324 15.5324C35.0797 6.95411 24.1107 4.01497 15.5324 8.96765C14.8546 9.35899 14.2119 9.78789 13.6057 10.2502L14.6151 11.9986C15.2134 11.5267 15.853 11.0919 16.5324 10.6997C24.1541 6.2993 33.8999 8.91069 38.3003 16.5324C42.7007 24.1541 40.0893 33.9 32.4676 38.3004C24.8459 42.7008 15.1001 40.0894 10.6997 32.4677C10.075 31.3857 9.59164 30.2609 9.24385 29.1147L7.4704 30.1386Z" fill="url(#paint0_linear_1_216)"/>
<path id="circle" d="M34.7567 24.5005C34.7567 30.1651 30.1646 34.7573 24.4999 34.7573C18.8353 34.7573 14.2432 30.1651 14.2432 24.5005C14.2432 18.8359 18.8353 14.2437 24.4999 14.2437C30.1646 14.2437 34.7567 18.8359 34.7567 24.5005Z" stroke="url(#paint1_linear_1_216)" stroke-width="2"/>
<path id="K" d="M20.3601 19.4765H22.1301V24.5915L26.9301 19.4765H29.1801L24.9651 24.0665L29.2401 29.9615H27.1401L23.6601 25.3715L22.1301 27.0215V29.9615H20.3601V19.4765Z" fill="url(#paint2_linear_1_216)"/>
</g>
<defs>
<linearGradient id="paint0_linear_1_216" x1="32.5" y1="9" x2="12" y2="38" gradientUnits="userSpaceOnUse">
<stop stop-color="#5E12CE"/>
<stop offset="1" stop-color="#C900FC"/>
</linearGradient>
<linearGradient id="paint1_linear_1_216" x1="19" y1="34" x2="34" y2="13" gradientUnits="userSpaceOnUse">
<stop stop-color="#C900FC"/>
<stop offset="1" stop-color="#5E12CE"/>
</linearGradient>
<linearGradient id="paint2_linear_1_216" x1="30" y1="19" x2="20" y2="30" gradientUnits="userSpaceOnUse">
<stop stop-color="#5E12CE"/>
<stop offset="1" stop-color="#C900FC"/>
</linearGradient>
</defs>
</svg>
