<svg width="308" height="472" viewBox="0 0 308 472" fill="none" xmlns="http://www.w3.org/2000/svg">
<g id="robot">
<g id="Group">
<path id="Vector" d="M126.849 422.599C125.963 422.536 125.03 422.425 124.081 422.267C107.647 419.609 83.9367 403.695 89.8839 373.448C90.1212 372.214 90.4217 370.996 90.7697 369.762C90.9121 369.145 91.0386 368.702 91.1019 368.512C91.1177 368.433 91.1335 368.385 91.1335 368.385C98.0615 345.02 119.905 321.765 119.905 321.765C124.018 326.305 123.385 334.69 121.55 342.315C121.55 342.315 121.55 342.315 121.534 342.315C120.649 346.048 119.462 349.592 118.402 352.408C117.026 356.094 115.872 358.546 115.872 358.546C111.016 370.442 112.044 385.233 112.044 385.233L126.422 421.571L126.849 422.583V422.599Z" fill="url(#paint0_linear_26_86)"/>
<path id="Vector_2" d="M119.905 321.765C119.905 321.765 108.548 341.081 112.044 362.69C112.044 362.69 117.817 353.325 120.807 342.821C123.796 332.333 123.495 324.534 119.905 321.765V321.765Z" fill="url(#paint1_linear_26_86)"/>
<path id="Vector_3" d="M181.909 419.467L193.598 383.588C193.598 383.588 196.128 373.669 194.91 363.655C194.578 360.839 193.946 358.039 192.886 355.429C192.886 355.429 189.295 347.804 187.223 339.198C187.207 339.198 187.207 339.182 187.207 339.182C185.373 331.557 184.74 323.173 188.852 318.633C188.852 318.633 210.316 341.508 217.418 364.668C218.019 366.55 218.51 368.433 218.874 370.315C225.169 402.303 198.264 418.265 181.909 419.467V419.467Z" fill="url(#paint2_linear_26_86)"/>
<path id="Vector_4" d="M188.852 318.633C188.852 318.633 200.858 339.088 195.796 361.124C195.796 361.124 190.94 350.177 187.951 339.689C184.961 329.2 185.262 321.401 188.852 318.633V318.633Z" fill="url(#paint3_linear_26_86)"/>
<path id="Vector_5" style="mix-blend-mode:multiply" opacity="0.3" d="M181.909 419.467L193.598 383.588C193.598 383.588 196.128 373.669 194.91 363.655L196.714 359.558C196.714 359.558 197.457 384.205 205.144 390.802C214.65 398.933 220.123 380.013 217.418 364.668C218.019 366.55 218.51 368.433 218.874 370.315C225.169 402.303 198.264 418.264 181.909 419.467V419.467Z" fill="url(#paint4_linear_26_86)"/>
<path id="Vector_6" style="mix-blend-mode:multiply" opacity="0.3" d="M126.422 421.587L124.081 422.267C107.647 419.609 83.9367 403.695 89.8839 373.448C90.1212 372.214 90.4217 370.996 90.7697 369.762C90.0737 372.894 89.2671 388.809 94.9613 394.82C102.253 402.524 110.272 375.536 112.044 356.252C112.598 350.161 115.16 349.908 118.402 352.423C117.026 356.109 115.872 358.561 115.872 358.561C111.016 370.458 112.044 385.249 112.044 385.249L126.422 421.587Z" fill="url(#paint5_linear_26_86)"/>
<path id="Vector_7" d="M200.921 414.452C200.873 415.48 200.794 416.54 200.715 417.648C199.529 434.432 196.445 459.174 192.032 468.365C190.988 470.58 189.849 471.893 188.647 471.988C188.33 472.02 188.014 471.988 187.682 471.909C186.543 471.656 185.293 470.817 184.012 469.536C175.945 461.531 165.822 436.378 165.047 428.737C164.952 427.788 165 427.108 165.206 426.76C169.128 420.653 199.007 398.807 200.873 401.069C201.364 401.686 201.364 407.001 200.937 414.452H200.921Z" fill="url(#paint6_linear_26_86)"/>
<path id="Vector_8" d="M165.016 428.721C164.209 431.11 196.824 423.691 200.842 401.069C200.842 401.069 198.912 400.167 195.939 401.069C187.508 403.663 170.599 412.047 165 428.721H165.016Z" fill="url(#paint7_linear_26_86)"/>
<path id="Vector_9" style="mix-blend-mode:multiply" opacity="0.3" d="M200.921 414.452C200.921 414.452 183.237 420.922 179.599 429.734C175.977 438.529 178.808 458.747 183.996 469.52C175.93 461.531 165.807 436.378 165.032 428.721C164.937 427.772 164.984 427.092 165.19 426.744C169.112 420.638 198.991 398.791 200.858 401.053C201.348 401.67 201.348 406.985 200.921 414.436V414.452Z" fill="url(#paint8_linear_26_86)"/>
<path id="Vector_10" d="M182.383 456.073C183.743 456.421 185.056 461.547 182.842 462.259C180.627 462.971 179.22 455.267 182.383 456.073Z" fill="white"/>
<path id="Vector_11" d="M107.868 414.452C107.915 415.48 107.994 416.54 108.074 417.648C109.26 434.432 112.344 459.174 116.757 468.365C117.801 470.58 118.94 471.893 120.142 471.988C120.458 472.02 120.775 471.988 121.107 471.909C122.246 471.656 123.495 470.817 124.777 469.536C132.843 461.531 142.966 436.378 143.741 428.737C143.836 427.788 143.789 427.108 143.583 426.76C139.661 420.653 109.782 398.807 107.915 401.069C107.425 401.686 107.425 407.001 107.852 414.452H107.868Z" fill="url(#paint9_linear_26_86)"/>
<path id="Vector_12" d="M143.757 428.721C144.564 431.11 111.949 423.691 107.931 401.069C107.931 401.069 109.228 400.119 112.281 401.069C120.759 403.695 138.221 412.158 143.773 428.721H143.757Z" fill="url(#paint10_linear_26_86)"/>
<path id="Vector_13" style="mix-blend-mode:multiply" opacity="0.3" d="M107.868 414.452C107.868 414.452 125.552 420.922 129.19 429.734C132.812 438.529 129.981 458.747 124.792 469.52C132.859 461.531 142.982 436.378 143.757 428.721C143.852 427.772 143.805 427.092 143.599 426.744C139.676 420.638 109.798 398.791 107.931 401.053C107.441 401.67 107.441 406.985 107.868 414.436V414.452Z" fill="url(#paint11_linear_26_86)"/>
<path id="Vector_14" d="M128.114 446.091C126.754 446.439 123.717 461.563 125.932 462.275C128.146 462.986 131.278 445.3 128.114 446.091Z" fill="white"/>
<g id="Group_2">
<path id="Vector_15" d="M115.444 202.754C115.444 202.754 105.559 194.212 93.4426 192.741C93.4426 192.741 89.7414 194.56 85.4549 207.896C81.1684 221.232 89.077 247.603 89.077 247.603L115.444 202.77V202.754Z" fill="url(#paint12_linear_26_86)"/>
<path id="Vector_16" d="M88.7449 199.385C88.7449 199.385 90.6904 194.876 93.4426 192.741C93.4426 192.741 103.407 201.932 103.012 223.905L100.133 226.879L88.7449 199.401V199.385Z" fill="url(#paint13_linear_26_86)"/>
<path id="Vector_17" d="M197.315 202.754C197.315 202.754 207.2 194.212 219.317 192.741C219.317 192.741 223.018 194.56 227.304 207.896C231.591 221.232 223.682 247.603 223.682 247.603L197.315 202.77V202.754Z" fill="url(#paint14_linear_26_86)"/>
<path id="Vector_18" d="M219.317 192.741C219.317 192.741 209.526 203.245 209.526 220.172L213.306 222.561L224.346 199.717C224.346 199.717 220.677 192.551 219.317 192.741V192.741Z" fill="url(#paint15_linear_26_86)"/>
<path id="Vector_19" d="M212.942 221.406C212.942 221.406 210.332 206.947 219.854 196.332C219.854 196.332 230.594 201.394 235.055 220.172C239.515 238.95 227.921 250.229 227.921 250.229L212.942 221.406V221.406Z" fill="url(#paint16_linear_26_86)"/>
<path id="Vector_20" d="M99.817 221.406C99.817 221.406 102.427 206.947 92.9048 196.332C92.9048 196.332 82.1649 201.394 77.7045 220.172C73.244 238.95 84.838 250.229 84.838 250.229L99.817 221.406V221.406Z" fill="url(#paint17_linear_26_86)"/>
<path id="Vector_21" d="M226.15 301.295C204.069 332.254 100.323 329.96 86.8153 304.917C78.0051 288.56 78.97 263.976 87.448 241.354C98.5834 211.661 122.689 185.321 154.671 185.321C192.301 185.321 221.215 222.814 229.914 257.063C234.327 274.401 233.568 290.885 226.15 301.295Z" fill="url(#paint18_linear_26_86)"/>
<path id="Vector_22" d="M94.5498 272.582C99.4848 293.67 190.687 295.963 213.084 276.853C235.482 257.743 203.23 189.861 153.817 192.82C108.627 195.525 86.4514 238.032 94.5498 272.582Z" fill="#DFE3FB"/>
<path id="Vector_23" d="M94.0754 270.019C99.0104 291.107 190.213 293.401 212.61 274.291C235.007 255.18 202.756 187.299 153.343 190.257C108.153 192.962 85.977 235.469 94.0754 270.019V270.019Z" fill="url(#paint19_linear_26_86)"/>
<path id="Vector_24" style="mix-blend-mode:multiply" opacity="0.3" d="M226.15 301.295C204.069 332.254 100.323 329.96 86.8153 304.917C78.0051 288.56 78.97 263.976 87.448 241.354C87.0842 242.683 78.3847 274.401 87.2582 288.354C96.3373 302.623 132.243 300.646 170.789 299.001C209.336 297.34 222.085 291.755 228.554 280.872C233.647 272.313 228.522 253.44 226.118 245.784L229.898 257.063C234.311 274.401 233.552 290.885 226.134 301.295H226.15Z" fill="url(#paint20_linear_26_86)"/>
<path id="Vector_25" d="M197.283 317.874C185.404 321.512 166.851 324.106 154.782 324.091C133.223 324.059 117.675 321.639 108.975 318.158C103.265 315.88 100.497 313.143 100.908 310.343C101.161 308.635 105.385 307.132 112.06 305.914C131.641 302.37 172.181 301.295 194.025 304.601C195.891 304.886 197.647 305.202 199.228 305.55C199.561 305.629 199.893 305.708 200.193 305.787C200.272 305.787 200.32 305.819 200.383 305.835C204.148 306.752 206.821 307.891 208.007 309.268C208.308 309.632 208.513 309.98 208.624 310.343C209.399 313.001 204.606 315.627 197.299 317.874H197.283Z" fill="url(#paint21_linear_26_86)"/>
<path id="Vector_26" style="mix-blend-mode:multiply" opacity="0.5" d="M197.283 317.874C192.522 315.77 162.232 303.13 137.699 308.619C111.016 314.615 108.975 318.158 108.975 318.158C103.265 315.88 100.497 313.143 100.908 310.343C101.161 308.635 105.385 307.132 112.06 305.914C131.641 302.37 172.181 301.295 194.025 304.601C196.302 305.012 198.374 305.408 200.193 305.787C200.272 305.787 200.32 305.819 200.383 305.835C204.148 306.752 206.821 307.891 208.007 309.268C208.308 309.632 208.513 309.98 208.624 310.343C209.399 313.001 204.606 315.627 197.299 317.874H197.283Z" fill="url(#paint22_linear_26_86)"/>
<path id="Vector_27" d="M199.213 305.566C194.12 310.438 169.666 314.662 155.731 314.646C130.756 314.615 115.571 310.676 112.044 305.93C133.318 302.086 179.315 301.136 199.213 305.582V305.566Z" fill="url(#paint23_linear_26_86)"/>
<path id="Vector_28" style="mix-blend-mode:multiply" opacity="0.5" d="M86.8153 304.917C86.8153 304.917 91.1967 299.808 99.7855 295.679C108.374 291.566 116.283 288.338 117.501 285.032C118.719 281.726 93.9173 283.672 93.9173 283.672L81.5798 289.034C81.5798 289.034 83.5095 298.985 86.7995 304.917H86.8153Z" fill="url(#paint24_linear_26_86)"/>
<path id="Vector_29" d="M174.206 238.744C177.496 244.55 197.394 245.847 201.585 238.744C204.069 234.52 194.863 213.986 183.332 215.299C171.802 216.612 172.608 235.928 174.206 238.744Z" fill="url(#paint25_linear_26_86)"/>
<path id="Vector_30" d="M138.443 238.522C135.153 244.328 112.044 245.973 111.142 239.772C109.687 229.837 116.947 213.986 128.478 215.315C140.009 216.628 140.04 235.707 138.443 238.522Z" fill="url(#paint26_linear_26_86)"/>
<path id="Vector_31" d="M140.847 249.897C140.847 249.897 145.086 251.036 157.075 251.036C169.065 251.036 175.234 249.217 175.234 249.217C175.234 249.217 169.951 256.383 157.075 256.383C144.2 256.383 140.847 249.881 140.847 249.881V249.897Z" fill="#2F95CD"/>
<path id="Vector_32" d="M76.6923 226.863C76.6923 226.863 83.0983 230.977 78.8909 240.516C78.8909 240.516 48.9962 256.794 50.7361 274.544C52.1755 289.351 93.4744 282.185 93.4744 282.185L94.9612 287.12C94.9612 287.12 59.8785 293.986 47.7783 285.728C47.7783 285.728 43.6658 275.952 53.868 258.329C64.0859 240.706 76.6923 226.863 76.6923 226.863V226.863Z" fill="url(#paint27_linear_26_86)"/>
<path id="Vector_33" d="M88.2546 280.808C84.4901 285.064 92.4778 289.73 99.042 290.442C106.413 291.249 119.494 288.323 118.703 280.903C117.912 273.484 97.0806 270.826 88.2546 280.808Z" fill="url(#paint28_linear_26_86)"/>
<path id="Vector_34" style="mix-blend-mode:screen" opacity="0.5" d="M109.054 216.707C107.916 223.541 123.116 223.241 143.805 222.561C168.67 221.738 193.661 243.158 208.213 227.781C210.617 225.25 186.796 191.997 158.056 192.741C129.316 193.484 110.051 210.775 109.054 216.707V216.707Z" fill="url(#paint29_linear_26_86)"/>
<path id="Vector_35" style="mix-blend-mode:screen" opacity="0.5" d="M123.147 276.189C121.835 281.14 132.195 286.092 157.645 284.842C188.425 283.339 194.958 276.885 193.455 275.097C192.554 274.022 183.332 279.827 158.04 274.291C141.337 270.636 124.524 270.984 123.147 276.189V276.189Z" fill="url(#paint30_linear_26_86)"/>
<path id="Vector_36" d="M172.276 189.687C170.093 190.194 188.426 199.907 189.169 198.752C189.912 197.597 178.318 188.279 172.276 189.687Z" fill="white"/>
<path id="Vector_37" d="M207.422 196.949C205.587 197.929 205.745 199.907 209.525 199.416C213.306 198.926 215.362 195.952 214.951 195.382C214.54 194.813 209.462 195.841 207.422 196.949V196.949Z" fill="white"/>
<path id="Vector_38" d="M88.7607 281.599C88.5392 282.817 114.843 283.102 115.46 278.451C116.077 273.8 90.5006 272.202 88.7607 281.599Z" fill="url(#paint31_linear_26_86)"/>
<path id="Vector_39" style="mix-blend-mode:screen" opacity="0.2" d="M95.2142 263.074C95.2142 263.074 94.1387 255.892 95.404 246.258C96.6694 236.624 99.2476 230.407 100.798 231.277C102.348 232.147 102.095 241.591 103.012 250.878C103.724 258.107 105.116 264.91 105.116 264.91C105.116 264.91 98.4568 271.269 95.2142 263.074V263.074Z" fill="url(#paint32_linear_26_86)"/>
<path id="Vector_40" style="mix-blend-mode:screen" opacity="0.72" d="M228.048 204.827C228.048 204.827 224.568 200.508 219.807 201.663C215.062 202.818 214.745 217.783 217.577 218.147C220.424 218.511 221.626 209.873 223.793 208.513C225.976 207.152 229.772 207.674 229.772 207.674L228.032 204.827H228.048Z" fill="url(#paint33_linear_26_86)"/>
<path id="Vector_41" style="mix-blend-mode:screen" opacity="0.72" d="M81.2793 210.016C81.2793 210.016 83.1141 207.943 87.2266 208.608C91.3391 209.288 93.7117 217.736 95.8312 216.881C97.9349 216.027 96.4006 202.343 90.8171 198.309C90.8171 198.309 83.6361 204.431 81.2793 210V210.016Z" fill="url(#paint34_linear_26_86)"/>
<path id="Vector_42" d="M75.68 229.948C75.68 229.948 61.1123 246.306 61.998 247.476C62.8838 248.647 76.5499 231.641 75.68 229.948Z" fill="url(#paint35_linear_26_86)"/>
</g>
<g id="Group_3">
<path id="Vector_43" d="M196.555 397.288C193.55 415.069 177.622 426.934 154.798 426.934C134.931 426.934 118.086 419.53 113.641 403.204C109.197 386.91 110.921 356.758 116.852 337.98C117.738 335.18 118.814 332.475 120.047 329.912V329.88C121.186 327.555 122.436 325.34 123.812 323.268V323.236C131.056 312.321 141.67 305.186 153.675 305.186C165.68 305.186 175.724 310.327 182.225 317.921C185.246 321.449 187.619 325.53 189.311 329.849C191.272 334.832 192.917 340.116 194.214 345.558C194.214 345.589 194.215 345.653 194.246 345.716C198.359 362.769 199.229 381.389 196.54 397.272L196.555 397.288Z" fill="url(#paint36_linear_26_86)"/>
<path id="Vector_44" d="M114.496 386.72C117.896 362.848 137.035 346.665 158.309 348.674C181.229 350.841 193.55 372.72 193.234 391.498C192.902 410.276 179.188 424.94 154.576 424.94C129.965 424.94 111.316 409.042 114.496 386.72V386.72Z" fill="url(#paint37_linear_26_86)"/>
<path id="Vector_45" d="M114.717 388.698C118.118 364.826 137.257 348.643 158.531 350.652C181.45 352.819 193.772 374.697 193.455 393.475C193.123 412.253 179.41 426.918 154.798 426.918C130.186 426.918 111.538 411.019 114.717 388.698V388.698Z" fill="url(#paint38_radial_26_86)"/>
<path id="Vector_46" style="mix-blend-mode:multiply" opacity="0.5" d="M182.241 317.921C177.385 325.546 150.606 329.991 135.137 328.583C121.661 327.349 123.717 323.711 123.812 323.252V323.22C131.056 312.305 141.67 305.17 153.675 305.17C165.68 305.17 175.724 310.312 182.225 317.905L182.241 317.921Z" fill="url(#paint39_linear_26_86)"/>
<path id="Vector_47" d="M172.735 331.146C171.485 331.557 171.438 341.587 172.735 343.216C174.032 344.83 176.135 344.34 176.831 341.967C177.527 339.61 174.617 330.529 172.735 331.146Z" fill="white"/>
<path id="Vector_48" d="M175.028 345.89C173.984 346.143 173.873 348.627 174.348 349.497C174.822 350.367 176.626 350.177 176.926 349.117C177.211 348.057 176.072 345.637 175.028 345.89Z" fill="white"/>
<path id="Vector_49" style="mix-blend-mode:screen" opacity="0.72" d="M122.847 373.558C126.896 380.013 143.52 376.58 162.264 378.399C181.007 380.234 184.202 386.325 188.156 385.091C192.111 383.857 185.863 355.635 157.866 353.721C129.87 351.806 121.85 371.945 122.863 373.543L122.847 373.558Z" fill="url(#paint40_linear_26_86)"/>
</g>
<path id="Vector_50" d="M99.7064 357.565C97.571 356.948 94.2652 366.408 94.4392 367.61C94.6132 368.813 98.4884 365.142 99.4058 363.56C100.64 361.456 101.81 358.166 99.7064 357.565Z" fill="white"/>
<path id="Vector_51" d="M199.719 352.139C198.691 352.139 198.485 357.391 198.786 359.558C199.086 361.725 200.889 363.703 201.49 363.766C202.091 363.829 202.076 352.154 199.719 352.139Z" fill="white"/>
<g id="monitor">
<g id="Group_4" style="mix-blend-mode:hard-light" opacity="0.8">
<g id="Vector_52" style="mix-blend-mode:hard-light" opacity="0.8">
<path d="M3.13719 11.19C-2.42082 16.0628 -0.646987 224.412 8.88441 229.829C18.4158 235.246 294.968 235.388 303.695 224.98C312.446 214.572 305.28 18.6412 299.722 10.1019C294.164 1.56256 12.6686 2.83991 3.13719 11.19V11.19Z" fill="#7B66FF"/>
</g>
<path id="Vector_53" style="mix-blend-mode:hard-light" opacity="0.8" d="M3.13719 6.90851C-2.42082 11.7814 -0.646987 220.131 8.88441 225.548C18.4158 230.965 294.968 231.107 303.695 220.699C312.446 210.291 305.28 14.3597 299.722 5.8204C294.164 -2.7189 12.6686 -1.44156 3.13719 6.90851V6.90851Z" fill="url(#paint41_radial_26_86)"/>
</g>
<path id="play" d="M144.169 99.7291C136.104 101.527 139.486 151.793 144.169 152.313C148.852 152.834 176.358 134.785 177.682 125.891C179.007 116.997 151.761 98.026 144.169 99.7291Z" fill="white" fill-opacity="0.8"/>
<g id="Group_5">
<path id="Vector_54" d="M75.013 48.99C75.013 51.3318 74.8474 53.3188 74.54 54.951C74.2089 56.5831 73.7831 57.9078 73.2392 58.9249C72.6952 59.9421 72.0329 60.6754 71.2998 61.1485C70.5429 61.5979 69.7624 61.8345 68.911 61.8345C68.0596 61.8345 67.2554 61.6216 66.5222 61.1721C65.7654 60.7463 65.1268 60.0131 64.5592 59.0196C63.9916 58.0261 63.5658 56.7014 63.2347 55.0456C62.9036 53.4134 62.7617 51.3791 62.7617 48.9664C62.7617 46.5536 62.9273 44.4956 63.2347 42.8162C63.5422 41.1367 63.9916 39.7647 64.5592 38.7003C65.1268 37.6358 65.7654 36.8789 66.5222 36.4058C67.2791 35.9327 68.0596 35.6961 68.911 35.6961C69.7624 35.6961 70.5666 35.9327 71.2998 36.3821C72.0566 36.8316 72.6952 37.5885 73.2392 38.653C73.7831 39.6938 74.2325 41.0657 74.54 42.7452C74.8474 44.4247 75.013 46.5063 75.013 48.9427V48.99ZM71.1106 48.99C71.1106 47.1686 71.0633 45.6074 70.945 44.3537C70.8268 43.1 70.6612 42.0829 70.472 41.2786C70.2591 40.498 70.0226 39.9303 69.7625 39.5755C69.5023 39.2207 69.2185 39.0551 68.911 39.0551C68.6035 39.0551 68.2961 39.2443 68.0359 39.5991C67.7521 39.954 67.5156 40.5217 67.3264 41.3023C67.1135 42.0829 66.9716 43.1237 66.8534 44.3774C66.7351 45.6311 66.6878 47.1686 66.6878 48.99C66.6878 50.8114 66.7351 52.3017 66.8534 53.508C66.9716 54.7381 67.1372 55.7079 67.3264 56.4412C67.5392 57.1745 67.7757 57.7186 68.0359 58.0261C68.3197 58.3336 68.6035 58.4992 68.911 58.4992C69.2185 58.4992 69.5023 58.3336 69.7625 58.0024C70.0226 57.6712 70.2591 57.1272 70.472 56.3702C70.6848 55.6133 70.8268 54.6435 70.945 53.4134C71.0633 52.207 71.1106 50.7168 71.1106 48.9664V48.99Z" fill="white" fill-opacity="0.8"/>
<path id="Vector_55" d="M89.5585 36.0037C89.4166 38.3455 89.2984 40.6636 89.2038 42.9818C89.1328 45.2763 89.0855 47.5944 89.0855 49.9126C89.0855 51.7103 89.1092 53.5081 89.1565 55.2585C89.2038 57.0089 89.2984 58.783 89.4166 60.5808L85.8926 60.4862C85.4196 58.9723 84.9702 57.4584 84.5209 55.9681C84.0715 54.4779 83.6221 52.9877 83.1727 51.4974C82.7234 50.0072 82.274 48.5406 81.8246 47.074C81.3753 45.6074 80.8786 44.1409 80.4056 42.6743C80.4292 45.7257 80.5002 48.7535 80.5711 51.7813C80.6421 54.8091 80.784 57.8132 80.9732 60.841L76.9289 60.7937C77.0708 57.0799 77.1417 53.3425 77.1417 49.5814C77.1417 47.2633 77.1417 44.9924 77.0708 42.7216C77.0235 40.4507 76.9525 38.1799 76.8579 35.9091L81.7537 36.0037C82.345 38.5584 82.9835 41.184 83.6694 43.8333C84.3553 46.4827 85.0648 49.0847 85.8217 51.663C85.7271 49.0373 85.6088 46.388 85.4669 43.7387C85.3013 41.0894 85.1358 38.5111 84.9466 35.9564L89.5349 36.0037H89.5585Z" fill="white" fill-opacity="0.8"/>
<path id="Vector_56" d="M100.911 61.2668C100.249 61.2668 99.6336 61.2195 99.0187 61.2195C98.4038 61.2195 97.7889 61.2195 97.1976 61.2195C96.2988 61.2195 95.4001 61.2195 94.5014 61.2668C93.6026 61.2904 92.7039 61.3377 91.7578 61.4087C91.8524 59.2325 91.947 57.0799 92.018 54.9747C92.0889 52.8457 92.1126 50.6932 92.1126 48.517C92.1126 46.3407 92.0889 44.3774 92.0416 42.3431C91.9943 40.2852 91.8997 38.2272 91.7815 36.1693C91.8997 36.1693 92.0416 36.1693 92.1835 36.1693C92.3018 36.1693 92.4674 36.1693 92.6566 36.1693H93.2951C93.6736 36.1693 94.0756 36.1693 94.5014 36.1456C94.9271 36.1456 95.3764 36.0983 95.8258 36.0746C95.6839 37.7541 95.5657 39.5282 95.4947 41.3733C95.4237 43.2183 95.4001 45.1107 95.3764 47.0031C95.3764 48.8954 95.3528 50.7878 95.3528 52.6802C95.3528 54.5725 95.3291 56.3703 95.2818 58.1207C96.2279 58.1207 97.1739 58.0498 98.0727 57.9788C98.9714 57.9078 99.9411 57.7896 100.958 57.6476V61.3141L100.911 61.2668Z" fill="white" fill-opacity="0.8"/>
<path id="Vector_57" d="M109.236 60.9829C108.763 60.9829 108.314 60.9356 107.841 60.9356C107.368 60.9356 106.918 60.9356 106.445 60.9356C105.665 60.9356 104.908 60.9356 104.128 60.9829C103.347 61.0066 102.59 61.0539 101.81 61.1248V57.3637C102.117 57.3874 102.377 57.4347 102.661 57.4347C102.945 57.4347 103.205 57.482 103.465 57.5057C103.536 55.7079 103.607 53.9102 103.678 52.1124C103.749 50.3147 103.773 48.5406 103.773 46.7428C103.773 45.5365 103.773 44.3537 103.725 43.1947C103.702 42.0119 103.655 40.8529 103.631 39.6465C103.323 39.6465 103.016 39.6465 102.708 39.6465C102.401 39.6465 102.07 39.6701 101.739 39.6938V36.0273C102.661 36.0746 103.56 36.1219 104.459 36.1692C105.357 36.1929 106.256 36.2166 107.179 36.2166H108.148C108.479 36.2166 108.81 36.2166 109.142 36.1929L109.047 39.6701C108.787 39.6701 108.503 39.6701 108.243 39.6701C107.983 39.6701 107.723 39.6701 107.439 39.6701C107.273 41.7754 107.155 43.857 107.084 45.9149C107.013 47.9965 106.989 50.0781 106.989 52.1597C106.989 53.9811 107.013 55.8262 107.084 57.6239C107.462 57.6239 107.841 57.6239 108.219 57.6239C108.598 57.6239 109 57.6003 109.402 57.5766L109.236 61.0539V60.9829Z" fill="white" fill-opacity="0.8"/>
<path id="Vector_58" d="M123.687 36.0037C123.545 38.3455 123.427 40.6636 123.332 42.9818C123.261 45.2763 123.214 47.5944 123.214 49.9126C123.214 51.7103 123.238 53.5081 123.285 55.2585C123.332 57.0089 123.427 58.783 123.545 60.5808L120.021 60.4862C119.548 58.9723 119.099 57.4584 118.649 55.9681C118.2 54.4779 117.751 52.9877 117.301 51.4974C116.852 50.0072 116.402 48.5406 115.953 47.074C115.504 45.6074 115.007 44.1409 114.534 42.6743C114.558 45.7257 114.629 48.7535 114.7 51.7813C114.771 54.8091 114.912 57.8132 115.102 60.841L111.057 60.7937C111.199 57.0799 111.27 53.3425 111.27 49.5814C111.27 47.2633 111.27 44.9924 111.199 42.7216C111.152 40.4507 111.081 38.1799 110.986 35.9091L115.882 36.0037C116.473 38.5584 117.112 41.184 117.798 43.8333C118.484 46.4827 119.193 49.0847 119.95 51.663C119.856 49.0373 119.737 46.388 119.595 43.7387C119.43 41.0894 119.264 38.5111 119.075 35.9564L123.663 36.0037H123.687Z" fill="white" fill-opacity="0.8"/>
<path id="Vector_59" d="M133.005 51.8759C132.651 51.8759 132.272 51.8286 131.894 51.8286C131.515 51.8286 131.137 51.8286 130.782 51.8286C130.569 51.8286 130.357 51.8286 130.12 51.8286C129.884 51.8286 129.671 51.8286 129.434 51.8286L129.363 58.0734C130.309 58.0734 131.255 58.0024 132.154 57.9315C133.053 57.8605 134.022 57.7422 135.039 57.6003V61.2668C134.377 61.2668 133.762 61.2195 133.147 61.2195C132.532 61.2195 131.918 61.2195 131.326 61.2195C130.427 61.2195 129.529 61.2195 128.63 61.2668C127.731 61.2904 126.833 61.3377 125.886 61.4087C125.981 59.2325 126.076 57.0799 126.147 54.9747C126.218 52.8457 126.241 50.6932 126.241 48.517C126.241 46.3407 126.218 44.3774 126.17 42.3431C126.123 40.2852 126.028 38.2272 125.91 36.1693C127.282 36.2639 128.606 36.3348 129.836 36.3348C130.64 36.3348 131.421 36.3348 132.201 36.2639C132.982 36.2166 133.833 36.1693 134.732 36.0983V40.1196C133.999 40.0013 133.289 39.883 132.58 39.8121C131.87 39.7411 131.161 39.7174 130.475 39.7174H129.789C129.671 41.184 129.6 42.627 129.552 44.0699C129.505 45.5128 129.481 46.9794 129.458 48.4223C129.765 48.446 130.073 48.4696 130.38 48.4696H132.154C132.438 48.4696 132.722 48.4696 133.005 48.4223V51.9232V51.8759Z" fill="white" fill-opacity="0.8"/>
<path id="Vector_60" d="M149.656 51.8759C149.301 51.8759 148.923 51.8286 148.544 51.8286C148.166 51.8286 147.787 51.8286 147.433 51.8286C147.22 51.8286 147.007 51.8286 146.77 51.8286C146.534 51.8286 146.321 51.8286 146.085 51.8286L146.014 58.0734C146.96 58.0734 147.906 58.0024 148.804 57.9315C149.703 57.8605 150.673 57.7422 151.69 57.6003V61.2668C151.028 61.2668 150.413 61.2195 149.798 61.2195C149.183 61.2195 148.568 61.2195 147.977 61.2195C147.078 61.2195 146.179 61.2195 145.28 61.2668C144.382 61.2904 143.483 61.3377 142.537 61.4087C142.631 59.2325 142.726 57.0799 142.797 54.9747C142.868 52.8457 142.892 50.6932 142.892 48.517C142.892 46.3407 142.868 44.3774 142.821 42.3431C142.773 40.2852 142.679 38.2272 142.561 36.1693C143.932 36.2639 145.257 36.3348 146.487 36.3348C147.291 36.3348 148.071 36.3348 148.852 36.2639C149.632 36.2166 150.484 36.1693 151.382 36.0983V40.1196C150.649 40.0013 149.94 39.883 149.23 39.8121C148.521 39.7411 147.811 39.7174 147.125 39.7174H146.439C146.321 41.184 146.25 42.627 146.203 44.0699C146.155 45.5128 146.132 46.9794 146.108 48.4223C146.416 48.446 146.723 48.4696 147.031 48.4696H148.804C149.088 48.4696 149.372 48.4696 149.656 48.4223V51.9232V51.8759Z" fill="white" fill-opacity="0.8"/>
<path id="Vector_61" d="M164.272 49.3449C164.272 51.1426 164.13 52.7038 163.87 54.0285C163.61 55.3295 163.255 56.4649 162.83 57.3874C162.404 58.31 161.907 59.0669 161.363 59.6346C160.819 60.2023 160.275 60.6518 159.708 60.9593C159.14 61.2668 158.596 61.4797 158.076 61.598C157.555 61.7162 157.082 61.7635 156.704 61.7635L153.109 61.456C153.251 59.0669 153.369 56.6778 153.464 54.265C153.535 51.8523 153.582 49.4395 153.582 46.9794C153.582 45.1344 153.582 43.2893 153.511 41.4679C153.464 39.6465 153.393 37.8251 153.298 36.0037C153.582 36.0037 153.842 35.9564 154.126 35.9564C154.386 35.9564 154.646 35.9564 154.906 35.9564C156.846 35.9564 158.407 36.2876 159.637 36.9499C160.843 37.6122 161.789 38.5347 162.475 39.7175C163.161 40.9002 163.634 42.3195 163.87 43.9516C164.13 45.5838 164.249 47.4052 164.249 49.3685L164.272 49.3449ZM160.701 48.8718C160.701 48.3041 160.701 47.6891 160.677 47.0504C160.677 46.4117 160.606 45.7494 160.535 45.1107C160.464 44.472 160.346 43.857 160.204 43.242C160.062 42.627 159.849 42.0829 159.613 41.5625C159.376 41.0658 159.069 40.6163 158.714 40.2615C158.359 39.9067 157.934 39.6465 157.437 39.4809C157.366 40.7583 157.295 42.012 157.248 43.242C157.201 44.472 157.153 45.6548 157.106 46.8612C157.082 48.0439 157.035 49.2266 157.035 50.4093C157.035 51.5921 157.011 52.7512 157.011 53.9339V56.2757C157.011 57.0563 157.011 57.8605 157.035 58.6884C157.579 58.6411 158.028 58.4283 158.43 58.0734C158.832 57.7186 159.164 57.2928 159.447 56.7488C159.731 56.2284 159.944 55.6133 160.11 54.951C160.275 54.2887 160.417 53.6027 160.512 52.8931C160.606 52.1834 160.677 51.4974 160.701 50.8115C160.725 50.1255 160.748 49.4868 160.748 48.8955L160.701 48.8718Z" fill="white" fill-opacity="0.8"/>
<path id="Vector_62" d="M176.145 35.9091C176.405 38.2982 176.594 40.6873 176.713 43.1237C176.807 45.5601 176.878 48.0912 176.878 50.7405C176.878 51.6394 176.831 52.5382 176.76 53.4134C176.689 54.2887 176.547 55.1402 176.382 55.9445C176.192 56.7487 175.956 57.482 175.672 58.168C175.365 58.854 175.01 59.4454 174.56 59.9421C174.111 60.4389 173.591 60.8173 172.976 61.1248C172.361 61.4087 171.675 61.5506 170.895 61.5506C170.185 61.5506 169.594 61.4087 169.05 61.1485C168.529 60.8883 168.08 60.5335 167.702 60.0604C167.323 59.6109 167.016 59.0669 166.756 58.4282C166.495 57.8132 166.306 57.1272 166.164 56.3939C166.022 55.6606 165.928 54.9037 165.881 54.0994C165.81 53.3188 165.786 52.5146 165.786 51.7103C165.786 49.2739 165.881 46.8375 166.07 44.3301C166.259 41.8464 166.495 39.268 166.779 36.595L170.445 36.666C170.232 39.1734 170.043 41.7044 169.854 44.2591C169.665 46.8138 169.594 49.4395 169.594 52.1598C169.594 52.9404 169.594 53.6736 169.665 54.3833C169.712 55.0929 169.783 55.7079 169.901 56.2283C170.019 56.7487 170.161 57.1745 170.351 57.5057C170.54 57.8369 170.753 57.9788 171.036 57.9788C171.344 57.9788 171.628 57.7422 171.912 57.2455C172.172 56.7487 172.385 56.0864 172.574 55.2822C172.763 54.4779 172.905 53.5554 172.999 52.5146C173.094 51.4738 173.165 50.433 173.165 49.3449C173.165 48.2567 173.165 47.2869 173.141 46.2461C173.141 45.2053 173.094 44.1645 173.07 43.1001C173.023 42.0356 172.976 40.9475 172.929 39.8357C172.881 38.724 172.787 37.5649 172.692 36.3585L176.169 35.9564L176.145 35.9091Z" fill="white" fill-opacity="0.8"/>
<path id="Vector_63" d="M188.964 60.7937C188.515 61.0066 188.065 61.1721 187.616 61.2668C187.167 61.385 186.764 61.456 186.433 61.527C186.031 61.5743 185.629 61.6216 185.251 61.6216C184.825 61.6216 184.376 61.5506 183.903 61.385C183.43 61.2431 182.933 60.9829 182.436 60.6044C181.94 60.226 181.467 59.7292 181.017 59.0905C180.568 58.4519 180.166 57.6476 179.811 56.7014C179.456 55.7316 179.172 54.5962 178.983 53.2479C178.77 51.8995 178.676 50.3383 178.676 48.5643C178.676 46.7902 178.794 45.229 179.054 43.9043C179.314 42.5796 179.622 41.4442 180.024 40.4744C180.426 39.5282 180.875 38.7476 181.396 38.1326C181.892 37.5176 182.413 37.0445 182.933 36.6896C183.453 36.3348 183.974 36.0983 184.47 35.9564C184.967 35.8144 185.393 35.7671 185.747 35.7671C186.079 35.7671 186.41 35.8144 186.741 35.8617C187.025 35.909 187.308 36.0037 187.616 36.1219C187.923 36.2402 188.207 36.4058 188.42 36.6187L188.065 40.1432C187.734 39.9776 187.427 39.8594 187.143 39.7884C186.859 39.7174 186.575 39.6701 186.339 39.6701C185.842 39.6701 185.416 39.8121 185.038 40.0723C184.659 40.3325 184.328 40.6873 184.068 41.1131C183.784 41.5388 183.572 42.0356 183.359 42.5796C183.169 43.1237 183.004 43.6914 182.886 44.2591C182.602 45.6074 182.436 47.1213 182.389 48.8481C182.413 50.5512 182.602 52.0651 182.886 53.3898C183.004 53.9575 183.169 54.5252 183.359 55.0693C183.548 55.6133 183.784 56.0864 184.068 56.5122C184.352 56.938 184.683 57.2691 185.062 57.5293C185.44 57.7895 185.889 57.9078 186.386 57.9078C186.93 57.9078 187.569 57.7186 188.302 57.3401L188.94 60.7937H188.964Z" fill="white" fill-opacity="0.8"/>
<path id="Vector_64" d="M197.36 61.3851C197.289 60.5808 197.242 59.7765 197.195 58.9486C197.147 58.1444 197.076 57.3165 197.006 56.4886C196.485 56.4649 195.989 56.4176 195.516 56.3939C195.042 56.3703 194.546 56.3466 194.073 56.3466H193.836C193.765 57.1745 193.718 58.0025 193.671 58.8304C193.623 59.6583 193.576 60.4625 193.552 61.2668L189.177 61.1958C189.91 57.0326 190.549 52.8931 191.14 48.7535C191.731 44.614 192.228 40.4507 192.63 36.2402L197.904 36.3349C198.354 40.4981 198.874 44.6376 199.513 48.7535C200.127 52.8694 200.861 57.009 201.712 61.1722L197.384 61.456L197.36 61.3851ZM195.303 40.6163C195.066 42.7689 194.853 44.8978 194.64 47.0267C194.428 49.1556 194.238 51.3082 194.073 53.4844C194.309 53.4844 194.569 53.5081 194.83 53.5081H196.745C196.556 51.3319 196.32 49.1793 196.083 47.0504C195.847 44.9215 195.586 42.7689 195.303 40.5927V40.6163Z" fill="white" fill-opacity="0.8"/>
<path id="Vector_65" d="M211.551 39.7648C211.172 39.7411 210.747 39.7174 210.274 39.7174C209.777 39.7174 209.28 39.7174 208.713 39.7174C208.642 40.8056 208.571 41.9173 208.5 43.0764C208.453 44.2355 208.405 45.4182 208.382 46.6009C208.334 47.8073 208.311 48.99 208.311 50.1964C208.311 51.4028 208.311 52.5855 208.311 53.7683C208.311 55.1166 208.311 56.4176 208.334 57.6713C208.334 58.925 208.382 60.1314 208.453 61.2904H204.739C204.834 59.3034 204.929 57.1982 204.976 54.951C205.023 52.7038 205.07 50.4566 205.07 48.1858C205.07 46.6956 205.07 45.2526 205.023 43.857C205 42.4377 204.952 41.0658 204.905 39.7174C204.337 39.7174 203.817 39.7174 203.32 39.7174C202.824 39.7174 202.374 39.7411 201.972 39.7648V36.0983C202.422 36.122 202.895 36.1693 203.415 36.1693C203.935 36.1693 204.479 36.1929 205.07 36.2166C205.638 36.2166 206.229 36.2166 206.844 36.2402C207.459 36.2402 208.051 36.2402 208.618 36.2402H210.274C210.794 36.2402 211.243 36.2402 211.669 36.2166L211.575 39.7174L211.551 39.7648Z" fill="white" fill-opacity="0.8"/>
<path id="Vector_66" d="M219.994 60.9829C219.521 60.9829 219.072 60.9356 218.599 60.9356C218.126 60.9356 217.677 60.9356 217.204 60.9356C216.423 60.9356 215.666 60.9356 214.886 60.9829C214.105 61.0066 213.349 61.0539 212.568 61.1248V57.3637C212.875 57.3874 213.136 57.4347 213.419 57.4347C213.703 57.4347 213.963 57.482 214.224 57.5057C214.295 55.7079 214.365 53.9102 214.413 52.1124C214.484 50.3147 214.507 48.5406 214.507 46.7428C214.507 45.5365 214.507 44.3537 214.46 43.1947C214.436 42.0119 214.389 40.8529 214.365 39.6465C214.058 39.6465 213.751 39.6465 213.443 39.6465C213.136 39.6465 212.805 39.6701 212.473 39.6938V36.0273C213.396 36.0746 214.295 36.1219 215.193 36.1692C216.092 36.1929 216.991 36.2166 217.913 36.2166H218.883C219.214 36.2166 219.545 36.2166 219.876 36.1929L219.782 39.6701C219.521 39.6701 219.238 39.6701 218.977 39.6701C218.717 39.6701 218.457 39.6701 218.173 39.6701C218.008 41.7754 217.889 43.857 217.819 45.9149C217.748 47.9965 217.724 50.0781 217.724 52.1597C217.724 53.9811 217.748 55.8262 217.819 57.6239C218.197 57.6239 218.575 57.6239 218.954 57.6239C219.332 57.6239 219.734 57.6003 220.136 57.5766L219.971 61.0539L219.994 60.9829Z" fill="white" fill-opacity="0.8"/>
<path id="Vector_67" d="M233.594 48.9901C233.594 51.3319 233.428 53.3189 233.121 54.951C232.789 56.5832 232.364 57.9079 231.82 58.925C231.276 59.9421 230.614 60.6754 229.88 61.1485C229.147 61.6216 228.343 61.8345 227.492 61.8345C226.64 61.8345 225.836 61.6216 225.103 61.1722C224.346 60.7464 223.707 60.0131 223.14 59.0196C222.572 58.0261 222.146 56.7015 221.815 55.0457C221.484 53.4135 221.342 51.3792 221.342 48.9664C221.342 46.5537 221.508 44.4957 221.815 42.8162C222.123 41.1368 222.572 39.7648 223.14 38.7003C223.707 37.6359 224.346 36.8789 225.103 36.4058C225.86 35.9327 226.64 35.6962 227.492 35.6962C228.343 35.6962 229.147 35.9327 229.88 36.3822C230.637 36.8316 231.276 37.5886 231.82 38.653C232.364 39.6938 232.789 41.0658 233.121 42.7453C233.428 44.4247 233.594 46.5063 233.594 48.9428V48.9901ZM229.691 48.9901C229.691 47.1687 229.644 45.6075 229.526 44.3538C229.407 43.1001 229.242 42.0829 229.053 41.2787C228.84 40.4981 228.603 39.9304 228.343 39.5755C228.083 39.2207 227.799 39.0552 227.492 39.0552C227.184 39.0552 226.877 39.2444 226.616 39.5992C226.333 39.954 226.096 40.5217 225.907 41.3023C225.694 42.0829 225.552 43.1237 225.434 44.3774C225.316 45.6311 225.268 47.1687 225.268 48.9901C225.268 50.8115 225.316 52.3017 225.434 53.5081C225.552 54.7381 225.718 55.708 225.907 56.4413C226.12 57.1746 226.356 57.7186 226.616 58.0261C226.9 58.3336 227.184 58.4992 227.492 58.4992C227.799 58.4992 228.083 58.3336 228.343 58.0025C228.603 57.6713 228.84 57.1273 229.053 56.3703C229.265 55.6134 229.407 54.6435 229.526 53.4135C229.644 52.2071 229.691 50.7169 229.691 48.9664V48.9901Z" fill="white" fill-opacity="0.8"/>
<path id="Vector_68" d="M248.139 36.0037C247.997 38.3455 247.879 40.6636 247.784 42.9818C247.713 45.2763 247.666 47.5944 247.666 49.9126C247.666 51.7103 247.69 53.5081 247.737 55.2585C247.784 57.0089 247.879 58.783 247.997 60.5808L244.473 60.4862C244 58.9723 243.551 57.4584 243.101 55.9681C242.652 54.4779 242.203 52.9877 241.753 51.4974C241.304 50.0072 240.855 48.5406 240.405 47.074C239.956 45.6074 239.459 44.1409 238.986 42.6743C239.01 45.7257 239.081 48.7535 239.152 51.7813C239.223 54.8091 239.365 57.8132 239.554 60.841L235.509 60.7937C235.651 57.0799 235.722 53.3425 235.722 49.5814C235.722 47.2633 235.722 44.9924 235.651 42.7216C235.604 40.4507 235.533 38.1799 235.438 35.9091L240.334 36.0037C240.926 38.5584 241.564 41.184 242.25 43.8333C242.936 46.4827 243.645 49.0847 244.402 51.663C244.308 49.0373 244.189 46.388 244.047 43.7387C243.882 41.0894 243.716 38.5111 243.527 35.9564L248.115 36.0037H248.139Z" fill="white" fill-opacity="0.8"/>
</g>
<path id="Vector_69" d="M156.728 165.016C131.563 165.016 114.652 150.539 114.652 128.99C114.652 105.785 133.526 86.9083 156.728 86.9083C179.929 86.9083 198.803 105.785 198.803 128.99C198.803 150.539 181.892 165.016 156.728 165.016ZM156.728 89.2737C134.827 89.2737 117.017 107.086 117.017 128.99C117.017 152.242 136.955 162.65 156.728 162.65C176.5 162.65 196.438 152.242 196.438 128.99C196.438 107.086 178.629 89.2737 156.728 89.2737Z" fill="white" fill-opacity="0.8"/>
<g id="Group_6" style="mix-blend-mode:soft-light">
<g id="Vector_70" style="mix-blend-mode:soft-light">
<path d="M299.064 21.1197L3.37085 23.4425L3.38014 24.6252L299.073 22.3024L299.064 21.1197Z" fill="#C1AFF5"/>
</g>
<g id="Vector_71" style="mix-blend-mode:soft-light">
<path d="M304.164 43.1251L3.37842 45.4879L3.38771 46.6705L304.173 44.3078L304.164 43.1251Z" fill="#C1AFF5"/>
</g>
<g id="Vector_72" style="mix-blend-mode:soft-light">
<path d="M304.172 65.1705L3.38599 67.5332L3.39527 68.7159L304.181 66.3532L304.172 65.1705Z" fill="#C1AFF5"/>
</g>
<g id="Vector_73" style="mix-blend-mode:soft-light">
<path d="M304.179 87.2159L3.39355 89.5786L3.40284 90.7613L304.188 88.3986L304.179 87.2159Z" fill="#C1AFF5"/>
</g>
<g id="Vector_74" style="mix-blend-mode:soft-light">
<path d="M304.163 109.261L3.37744 111.624L3.38673 112.807L304.172 110.444L304.163 109.261Z" fill="#C1AFF5"/>
</g>
<g id="Vector_75" style="mix-blend-mode:soft-light">
<path d="M304.171 131.307L3.38501 133.669L3.3943 134.852L304.18 132.489L304.171 131.307Z" fill="#C1AFF5"/>
</g>
<g id="Vector_76" style="mix-blend-mode:soft-light">
<path d="M304.178 153.352L3.39258 155.715L3.40187 156.898L304.187 154.535L304.178 153.352Z" fill="#C1AFF5"/>
</g>
<g id="Vector_77" style="mix-blend-mode:soft-light">
<path d="M304.162 175.397L3.37646 177.76L3.38575 178.943L304.171 176.58L304.162 175.397Z" fill="#C1AFF5"/>
</g>
<g id="Vector_78" style="mix-blend-mode:soft-light">
<path d="M304.17 197.467L3.38428 199.829L3.39357 201.012L304.179 198.649L304.17 197.467Z" fill="#C1AFF5"/>
</g>
</g>
</g>
</g>
</g>
<defs>
<linearGradient id="paint0_linear_26_86" x1="105.559" y1="419.973" x2="117.916" y2="321.512" gradientUnits="userSpaceOnUse">
<stop stop-color="#C1C6F7"/>
<stop offset="1" stop-color="#DCE7F7"/>
</linearGradient>
<linearGradient id="paint1_linear_26_86" x1="121.866" y1="342.758" x2="112.249" y2="341.888" gradientUnits="userSpaceOnUse">
<stop stop-color="#515FE1"/>
<stop offset="1" stop-color="#848EEC"/>
</linearGradient>
<linearGradient id="paint2_linear_26_86" x1="194.452" y1="421.049" x2="207.03" y2="320.927" gradientUnits="userSpaceOnUse">
<stop stop-color="#C4D3FA"/>
<stop offset="1" stop-color="#DCDFF7"/>
</linearGradient>
<linearGradient id="paint3_linear_26_86" x1="186.954" y1="340.353" x2="196.35" y2="339.531" gradientUnits="userSpaceOnUse">
<stop stop-color="#7B8CE3"/>
<stop offset="1" stop-color="#5F76C7"/>
</linearGradient>
<linearGradient id="paint4_linear_26_86" x1="200.858" y1="419.467" x2="200.858" y2="359.558" gradientUnits="userSpaceOnUse">
<stop stop-color="#6871C2"/>
<stop offset="1" stop-color="#CCEDFF"/>
</linearGradient>
<linearGradient id="paint5_linear_26_86" x1="107.694" y1="422.267" x2="107.694" y2="350.921" gradientUnits="userSpaceOnUse">
<stop stop-color="#687CC2"/>
<stop offset="1" stop-color="#CCEDFF"/>
</linearGradient>
<linearGradient id="paint6_linear_26_86" x1="179.765" y1="471.516" x2="184.23" y2="399.939" gradientUnits="userSpaceOnUse">
<stop stop-color="#C1CDF7"/>
<stop offset="1" stop-color="#DCDDF7"/>
</linearGradient>
<linearGradient id="paint7_linear_26_86" x1="183.713" y1="428.091" x2="182.058" y2="401.724" gradientUnits="userSpaceOnUse">
<stop stop-color="#BE9DEA"/>
<stop offset="1" stop-color="#9E8CEF"/>
</linearGradient>
<linearGradient id="paint8_linear_26_86" x1="186.415" y1="469.402" x2="182.191" y2="402.08" gradientUnits="userSpaceOnUse">
<stop stop-color="#6871C2"/>
<stop offset="1" stop-color="#CCEDFF"/>
</linearGradient>
<linearGradient id="paint9_linear_26_86" x1="128.915" y1="471.763" x2="124.449" y2="400.187" gradientUnits="userSpaceOnUse">
<stop stop-color="#C1CDF7"/>
<stop offset="1" stop-color="#DCE2F7"/>
</linearGradient>
<linearGradient id="paint10_linear_26_86" x1="124.966" y1="428.354" x2="126.619" y2="402.003" gradientUnits="userSpaceOnUse">
<stop stop-color="#BE9DEA"/>
<stop offset="1" stop-color="#9E8CEF"/>
</linearGradient>
<linearGradient id="paint11_linear_26_86" x1="122.264" y1="469.666" x2="126.488" y2="402.343" gradientUnits="userSpaceOnUse">
<stop stop-color="#9D68C2"/>
<stop offset="1" stop-color="#CCEDFF"/>
</linearGradient>
<linearGradient id="paint12_linear_26_86" x1="99.8011" y1="247.587" x2="99.8011" y2="192.741" gradientUnits="userSpaceOnUse">
<stop stop-color="#ACBCF4"/>
<stop offset="1" stop-color="#D1D5F5"/>
</linearGradient>
<linearGradient id="paint13_linear_26_86" x1="95.8943" y1="226.863" x2="95.8943" y2="192.741" gradientUnits="userSpaceOnUse">
<stop stop-color="#BE9DEA"/>
<stop offset="1" stop-color="#9E8CEF"/>
</linearGradient>
<linearGradient id="paint14_linear_26_86" x1="212.942" y1="247.587" x2="212.942" y2="192.741" gradientUnits="userSpaceOnUse">
<stop stop-color="#ACB3F4"/>
<stop offset="1" stop-color="#D1D7F5"/>
</linearGradient>
<linearGradient id="paint15_linear_26_86" x1="216.928" y1="222.545" x2="216.928" y2="192.725" gradientUnits="userSpaceOnUse">
<stop stop-color="#BE9DEA"/>
<stop offset="1" stop-color="#9E8CEF"/>
</linearGradient>
<linearGradient id="paint16_linear_26_86" x1="224.346" y1="250.213" x2="224.346" y2="196.316" gradientUnits="userSpaceOnUse">
<stop stop-color="#AF93FF"/>
<stop offset="1" stop-color="#6F00FC"/>
</linearGradient>
<linearGradient id="paint17_linear_26_86" x1="88.4127" y1="250.213" x2="88.4127" y2="196.316" gradientUnits="userSpaceOnUse">
<stop stop-color="#B693FF"/>
<stop offset="1" stop-color="#6F00FC"/>
</linearGradient>
<linearGradient id="paint18_linear_26_86" x1="150.464" y1="325.404" x2="167.9" y2="186.54" gradientUnits="userSpaceOnUse">
<stop stop-color="#B2C5F3"/>
<stop offset="1" stop-color="#FAFAFA"/>
</linearGradient>
<linearGradient id="paint19_linear_26_86" x1="156.158" y1="287.326" x2="156.158" y2="190.178" gradientUnits="userSpaceOnUse">
<stop stop-color="#0665BD"/>
<stop offset="1" stop-color="#1A1F77"/>
</linearGradient>
<linearGradient id="paint20_linear_26_86" x1="156.633" y1="324.106" x2="156.633" y2="241.354" gradientUnits="userSpaceOnUse">
<stop stop-color="#9D68C2"/>
<stop offset="1" stop-color="#CCEDFF"/>
</linearGradient>
<linearGradient id="paint21_linear_26_86" x1="100.861" y1="313.349" x2="208.703" y2="313.349" gradientUnits="userSpaceOnUse">
<stop stop-color="#7984EA"/>
<stop offset="1" stop-color="#8C9CEF"/>
</linearGradient>
<linearGradient id="paint22_linear_26_86" x1="154.782" y1="318.158" x2="154.782" y2="302.623" gradientUnits="userSpaceOnUse">
<stop stop-color="#8DA4E5"/>
<stop offset="1" stop-color="#5055C8"/>
</linearGradient>
<linearGradient id="paint23_linear_26_86" x1="154.339" y1="315.959" x2="156.364" y2="299.839" gradientUnits="userSpaceOnUse">
<stop stop-color="#5E36CC"/>
<stop offset="1" stop-color="#6C4A96"/>
</linearGradient>
<linearGradient id="paint24_linear_26_86" x1="99.5641" y1="304.917" x2="99.5641" y2="283.118" gradientUnits="userSpaceOnUse">
<stop stop-color="#8DA4E5"/>
<stop offset="1" stop-color="#755CBB"/>
</linearGradient>
<linearGradient id="paint25_linear_26_86" x1="187.635" y1="243.601" x2="187.635" y2="215.236" gradientUnits="userSpaceOnUse">
<stop stop-color="#B693FF"/>
<stop offset="1" stop-color="#5100FC"/>
</linearGradient>
<linearGradient id="paint26_linear_26_86" x1="125.061" y1="243.711" x2="125.061" y2="215.22" gradientUnits="userSpaceOnUse">
<stop stop-color="#AF93FF"/>
<stop offset="1" stop-color="#4100FC"/>
</linearGradient>
<linearGradient id="paint27_linear_26_86" x1="69.9699" y1="290.664" x2="77.96" y2="227.022" gradientUnits="userSpaceOnUse">
<stop stop-color="#BCDCFA"/>
<stop offset="1" stop-color="#B4C0ED"/>
</linearGradient>
<linearGradient id="paint28_linear_26_86" x1="100.987" y1="291.034" x2="105.099" y2="273.573" gradientUnits="userSpaceOnUse">
<stop stop-color="#701ADD"/>
<stop offset="1" stop-color="#5D11FE"/>
</linearGradient>
<linearGradient id="paint29_linear_26_86" x1="108.991" y1="213.037" x2="208.371" y2="213.037" gradientUnits="userSpaceOnUse">
<stop/>
<stop offset="1" stop-color="#6A9BFF"/>
</linearGradient>
<linearGradient id="paint30_linear_26_86" x1="123.037" y1="278.451" x2="193.661" y2="278.451" gradientUnits="userSpaceOnUse">
<stop/>
<stop offset="1" stop-color="#6A9BFF"/>
</linearGradient>
<linearGradient id="paint31_linear_26_86" x1="102.11" y1="282.359" x2="102.11" y2="274.749" gradientUnits="userSpaceOnUse">
<stop stop-color="#7C3DE3"/>
<stop offset="1" stop-color="#C86DFF"/>
</linearGradient>
<linearGradient id="paint32_linear_26_86" x1="99.3939" y1="267.215" x2="101.858" y2="231.262" gradientUnits="userSpaceOnUse">
<stop/>
<stop offset="1" stop-color="#00E3FF"/>
</linearGradient>
<linearGradient id="paint33_linear_26_86" x1="215.773" y1="209.794" x2="229.803" y2="209.794" gradientUnits="userSpaceOnUse">
<stop/>
<stop offset="1" stop-color="#D4E2FF"/>
</linearGradient>
<linearGradient id="paint34_linear_26_86" x1="81.2793" y1="207.643" x2="96.7328" y2="207.643" gradientUnits="userSpaceOnUse">
<stop stop-color="#D4E2FF"/>
<stop offset="1"/>
</linearGradient>
<linearGradient id="paint35_linear_26_86" x1="68.6915" y1="247.665" x2="68.9869" y2="229.854" gradientUnits="userSpaceOnUse">
<stop stop-color="#F6F4FF"/>
<stop offset="1" stop-color="#EBF0FF"/>
</linearGradient>
<linearGradient id="paint36_linear_26_86" x1="148.455" y1="426.712" x2="163.612" y2="306.088" gradientUnits="userSpaceOnUse">
<stop stop-color="#C1D3F7"/>
<stop offset="1" stop-color="#DCE2F7"/>
</linearGradient>
<linearGradient id="paint37_linear_26_86" x1="153.691" y1="424.956" x2="153.691" y2="348.516" gradientUnits="userSpaceOnUse">
<stop stop-color="#BE9DEA"/>
<stop offset="1" stop-color="#9E8CEF"/>
</linearGradient>
<radialGradient id="paint38_radial_26_86" cx="0" cy="0" r="1" gradientUnits="userSpaceOnUse" gradientTransform="translate(155.225 415.069) scale(58.3182 58.3268)">
<stop stop-color="#4A259A"/>
<stop offset="1" stop-color="#7000FF"/>
</radialGradient>
<linearGradient id="paint39_linear_26_86" x1="152.947" y1="328.836" x2="152.947" y2="305.186" gradientUnits="userSpaceOnUse">
<stop stop-color="#BDCEFF"/>
<stop offset="1" stop-color="#ABD5FC"/>
</linearGradient>
<linearGradient id="paint40_linear_26_86" x1="122.752" y1="369.429" x2="189.216" y2="369.429" gradientUnits="userSpaceOnUse">
<stop/>
<stop offset="1" stop-color="#D4E2FF"/>
</linearGradient>
<radialGradient id="paint41_radial_26_86" cx="0" cy="0" r="1" gradientUnits="userSpaceOnUse" gradientTransform="translate(159.045 193.614) scale(222.888 222.921)">
<stop stop-color="#613ABC"/>
<stop offset="1" stop-color="#4222BD"/>
</radialGradient>
</defs>
</svg>
